<svg width="32" height="32" viewBox="0 0 32 32" fill="none" xmlns="http://www.w3.org/2000/svg">
<path d="M25.1225 18.6647C25.4277 18.6648 25.7247 18.5703 25.9683 18.3957C26.212 18.221 26.389 17.9757 26.4727 17.6968L29.2796 8.36464C29.3391 8.16624 29.3494 7.95743 29.3095 7.75464C29.2696 7.55185 29.1808 7.36061 29.0499 7.19598C28.919 7.03135 28.7497 6.89781 28.5553 6.80588C28.3609 6.71395 28.1467 6.66613 27.9295 6.66619H9.36133L8.52625 3.6599C8.44722 3.37524 8.27123 3.12343 8.02572 2.94376C7.78021 2.76409 7.479 2.66667 7.16908 2.66669H4.07018C3.69795 2.66669 3.34096 2.80715 3.07776 3.05716C2.81455 3.30718 2.66669 3.64628 2.66669 3.99985C2.66669 4.35343 2.81455 4.69253 3.07776 4.94254C3.34096 5.19256 3.69795 5.33302 4.07018 5.33302H6.08839L6.93049 8.33931V8.35264V8.36464L9.73746 17.6968L10.7845 21.6776C10.0913 21.9696 9.49405 22.4339 9.05568 23.0215C8.61732 23.6092 8.35414 24.2984 8.29394 25.0163C8.23374 25.7343 8.37875 26.4543 8.71366 27.1005C9.04856 27.7466 9.56094 28.2949 10.1967 28.6874C10.8324 29.0798 11.568 29.3019 12.3256 29.3303C13.0832 29.3586 13.8348 29.192 14.5011 28.8482C15.1673 28.5044 15.7235 27.9961 16.1108 27.3769C16.4981 26.7578 16.7022 26.0507 16.7016 25.3305C16.6969 24.8753 16.6096 24.4243 16.4433 23.9973H19.7668C19.6006 24.4243 19.5132 24.8753 19.5086 25.3305C19.5086 26.1215 19.7555 26.8948 20.2181 27.5525C20.6808 28.2102 21.3384 28.7229 22.1077 29.0256C22.8771 29.3283 23.7237 29.4075 24.5404 29.2532C25.3572 29.0988 26.1074 28.7179 26.6963 28.1586C27.2851 27.5992 27.6861 26.8866 27.8486 26.1108C28.011 25.335 27.9277 24.5308 27.609 23.8C27.2903 23.0692 26.7506 22.4445 26.0582 22.0051C25.3658 21.5656 24.5518 21.331 23.719 21.331H13.5858L12.8841 18.6647H25.1225ZM13.8946 25.3305C13.8946 25.5942 13.8123 25.8519 13.6581 26.0712C13.5038 26.2904 13.2847 26.4613 13.0282 26.5622C12.7717 26.6631 12.4896 26.6895 12.2173 26.6381C11.9451 26.5866 11.695 26.4597 11.4987 26.2732C11.3024 26.0868 11.1687 25.8492 11.1146 25.5906C11.0604 25.332 11.0882 25.0639 11.1945 24.8203C11.3007 24.5767 11.4806 24.3685 11.7114 24.222C11.9422 24.0755 12.2135 23.9973 12.4911 23.9973C12.8633 23.9973 13.2203 24.1378 13.4835 24.3878C13.7467 24.6378 13.8946 24.9769 13.8946 25.3305ZM23.719 26.6637C23.4414 26.6637 23.1701 26.5855 22.9393 26.439C22.7085 26.2925 22.5286 26.0843 22.4224 25.8407C22.3161 25.5971 22.2883 25.329 22.3425 25.0704C22.3967 24.8118 22.5303 24.5743 22.7266 24.3878C22.9229 24.2014 23.173 24.0744 23.4452 24.023C23.7175 23.9715 23.9997 23.9979 24.2561 24.0988C24.5126 24.1997 24.7318 24.3706 24.886 24.5898C25.0402 24.8091 25.1225 25.0668 25.1225 25.3305C25.1225 25.6841 24.9746 26.0232 24.7114 26.2732C24.4482 26.5232 24.0912 26.6637 23.719 26.6637Z" fill="#EFBB00"/>
</svg>
