<svg width="24" height="24" viewBox="0 0 24 24" fill="none" xmlns="http://www.w3.org/2000/svg">
<path d="M18.133 12.5322V10.7322C18.1327 9.25495 17.6214 7.82329 16.6858 6.68008C15.7502 5.53687 14.448 4.75251 13 4.46006V3.00002C13 2.7348 12.8946 2.48044 12.7071 2.2929C12.5196 2.10536 12.2652 2 12 2C11.7348 2 11.4804 2.10536 11.2929 2.2929C11.1054 2.48044 11 2.7348 11 3.00002V4.46006C9.55202 4.75251 8.24978 5.53687 7.3142 6.68008C6.37862 7.82329 5.86731 9.25495 5.867 10.7322V12.3182C5.86724 12.3888 5.87461 12.4592 5.889 12.5282H5.867C5.85187 13.3572 5.51222 14.1471 4.921 14.7283C4.38423 15.2545 4.05692 15.9578 4 16.7073C4 17.2504 4 18.9004 5.539 18.9004H7.746C8.03584 19.8007 8.60385 20.5859 9.36829 21.1429C10.1327 21.6999 11.0542 22 12 22C12.9458 22 13.8673 21.6999 14.6317 21.1429C15.3961 20.5859 15.9642 19.8007 16.254 18.9004H18.461C20 18.9004 20 17.2504 20 16.7073C19.9428 15.9582 19.6156 15.2552 19.079 14.7293C18.4885 14.1488 18.1489 13.3601 18.133 12.5322ZM12 20.0004C11.5933 20 11.193 19.8994 10.8344 19.7076C10.4758 19.5157 10.17 19.2385 9.944 18.9004H14.056C13.83 19.2385 13.5242 19.5157 13.1656 19.7076C12.807 19.8994 12.4067 20 12 20.0004ZM18 16.9003H6C6 16.8333 6 16.7643 6 16.7073C6 16.5703 6.25 16.2643 6.47 15.9953C7.35628 15.0586 7.85628 13.8218 7.87 12.5322V10.7322C7.8681 9.61372 8.2954 8.53714 9.06382 7.72442C9.83224 6.9117 10.8832 6.4248 12 6.3641C13.1173 6.42406 14.169 6.91064 14.9381 7.72343C15.7071 8.53623 16.1349 9.61323 16.133 10.7322V12.3182C16.1332 12.3888 16.1406 12.4592 16.155 12.5282H16.133C16.1467 13.8178 16.6467 15.0546 17.533 15.9913C17.753 16.2603 18.003 16.5663 18.003 16.7033C18 16.7643 18 16.8333 18 16.9003Z" fill="#1F2A37"/>
<path d="M5.293 5.60708C5.4816 5.78925 5.7342 5.89004 5.9964 5.88777C6.2586 5.88549 6.50941 5.78032 6.69482 5.5949C6.88023 5.40949 6.9854 5.15867 6.98767 4.89647C6.98995 4.63427 6.88916 4.38166 6.707 4.19305L5.707 3.19303C5.5184 3.01087 5.2658 2.91007 5.0036 2.91235C4.7414 2.91463 4.49059 3.0198 4.30518 3.20521C4.11977 3.39062 4.0146 3.64144 4.01233 3.90364C4.01005 4.16585 4.11084 4.41845 4.293 4.60706L5.293 5.60708Z" fill="#1F2A37"/>
<path d="M5 8.90016C5 8.63494 4.89464 8.38058 4.70711 8.19304C4.51957 8.0055 4.26522 7.90014 4 7.90014H3C2.73478 7.90014 2.48043 8.0055 2.29289 8.19304C2.10536 8.38058 2 8.63494 2 8.90016C2 9.16538 2.10536 9.41974 2.29289 9.60729C2.48043 9.79483 2.73478 9.90019 3 9.90019H4C4.26522 9.90019 4.51957 9.79483 4.70711 9.60729C4.89464 9.41974 5 9.16538 5 8.90016Z" fill="#1F2A37"/>
<path d="M18 5.90009C18.2652 5.90003 18.5195 5.79464 18.707 5.60708L19.707 4.60706C19.8025 4.51481 19.8787 4.40446 19.9311 4.28246C19.9835 4.16045 20.0111 4.02923 20.0123 3.89645C20.0134 3.76366 19.9881 3.63198 19.9378 3.50908C19.8875 3.38618 19.8133 3.27453 19.7194 3.18063C19.6255 3.08674 19.5138 3.01248 19.391 2.9622C19.2681 2.91192 19.1364 2.88662 19.0036 2.88777C18.8708 2.88892 18.7396 2.91651 18.6176 2.96892C18.4956 3.02133 18.3852 3.09752 18.293 3.19303L17.293 4.19305C17.1532 4.33291 17.058 4.51107 17.0194 4.70503C16.9808 4.89899 17.0007 5.10003 17.0763 5.28273C17.152 5.46544 17.2801 5.6216 17.4445 5.73149C17.609 5.84138 17.8022 5.90005 18 5.90009Z" fill="#1F2A37"/>
<path d="M21 7.90014H20C19.7348 7.90014 19.4804 8.0055 19.2929 8.19304C19.1054 8.38058 19 8.63494 19 8.90016C19 9.16538 19.1054 9.41974 19.2929 9.60729C19.4804 9.79483 19.7348 9.90019 20 9.90019H21C21.2652 9.90019 21.5196 9.79483 21.7071 9.60729C21.8946 9.41974 22 9.16538 22 8.90016C22 8.63494 21.8946 8.38058 21.7071 8.19304C21.5196 8.0055 21.2652 7.90014 21 7.90014Z" fill="#1F2A37"/>
</svg>
