<svg width="24" height="24" viewBox="0 0 24 24" fill="none" xmlns="http://www.w3.org/2000/svg">
<path d="M7 6C7 5.73478 7.10536 5.48043 7.29289 5.29289C7.48043 5.10536 7.73478 5 8 5H20C20.2652 5 20.5196 5.10536 20.7071 5.29289C20.8946 5.48043 21 5.73478 21 6V14C21 14.2652 20.8946 14.5196 20.7071 14.7071C20.5196 14.8946 20.2652 15 20 15M4 9H16C16.5523 9 17 9.44772 17 10V18C17 18.5523 16.5523 19 16 19H4C3.44772 19 3 18.5523 3 18V10C3 9.44772 3.44772 9 4 9ZM12 14C12 15.1046 11.1046 16 10 16C8.89543 16 8 15.1046 8 14C8 12.8954 8.89543 12 10 12C11.1046 12 12 12.8954 12 14Z" stroke="#FFCA0A" stroke-width="2" stroke-linecap="round" stroke-linejoin="round"/>
</svg>
