<svg width="24" height="24" viewBox="0 0 24 24" fill="none" xmlns="http://www.w3.org/2000/svg">
<path d="M19.9411 20H4.05882C3.778 20 3.50869 19.8876 3.31012 19.6876C3.11155 19.4875 3 19.2162 3 18.9333V5.06667C3 4.78377 3.11155 4.51246 3.31012 4.31242C3.50869 4.11238 3.778 4 4.05882 4C4.33963 4 4.60895 4.11238 4.80751 4.31242C5.00608 4.51246 5.11763 4.78377 5.11763 5.06667V17.8667H19.9411C20.2219 17.8667 20.4912 17.979 20.6898 18.1791C20.8883 18.3791 20.9999 18.6504 20.9999 18.9333C20.9999 19.2162 20.8883 19.4875 20.6898 19.6876C20.4912 19.8876 20.2219 20 19.9411 20Z" fill="#1F2A37"/>
<path d="M7.23526 16.8C7.03863 16.8 6.84588 16.7448 6.67861 16.6407C6.51134 16.5366 6.37617 16.3875 6.28823 16.2104C6.20029 16.0332 6.16307 15.8348 6.18073 15.6375C6.19838 15.4402 6.27023 15.2518 6.38821 15.0933L9.56466 10.8267C9.72706 10.6085 9.96627 10.4612 10.2331 10.4152C10.4999 10.3692 10.7741 10.4279 10.9994 10.5792L13.2515 12.0917L15.8572 7.7184C15.931 7.5947 16.0289 7.48737 16.145 7.40289C16.2612 7.31842 16.3931 7.25857 16.5329 7.22696C16.6726 7.19534 16.8173 7.19263 16.9582 7.21899C17.099 7.24534 17.2331 7.3002 17.3522 7.38027L20.5287 9.5136C20.6444 9.59134 20.7437 9.69128 20.8211 9.8077C20.8984 9.92413 20.9523 10.0548 20.9795 10.1921C21.0067 10.3295 21.0068 10.471 20.9798 10.6084C20.9528 10.7458 20.8992 10.8765 20.822 10.9931C20.7448 11.1096 20.6456 11.2097 20.5301 11.2876C20.4145 11.3655 20.2848 11.4198 20.1484 11.4472C20.0121 11.4746 19.8717 11.4748 19.7353 11.4475C19.5989 11.4203 19.4691 11.3663 19.3534 11.2885L17.1013 9.776L14.4956 14.1493C14.4218 14.273 14.3239 14.3804 14.2077 14.4648C14.0916 14.5493 13.9597 14.6092 13.8199 14.6408C13.6801 14.6724 13.5354 14.6751 13.3946 14.6487C13.2538 14.6224 13.1197 14.5675 13.0005 14.4875L10.6574 12.9131L8.08232 16.3733C7.98369 16.5058 7.8558 16.6133 7.70878 16.6874C7.56176 16.7614 7.39964 16.8 7.23526 16.8Z" fill="#1F2A37"/>
</svg>
