<svg width="21" height="21" viewBox="0 0 21 21" fill="none" xmlns="http://www.w3.org/2000/svg">
<path d="M2.25 5.5C2.25 4.96957 2.46071 4.46086 2.83579 4.08579C3.21086 3.71071 3.71957 3.5 4.25 3.5H11.25C11.7804 3.5 12.2891 3.71071 12.6642 4.08579C13.0393 4.46086 13.25 4.96957 13.25 5.5V9.5C13.25 10.0304 13.0393 10.5391 12.6642 10.9142C12.2891 11.2893 11.7804 11.5 11.25 11.5H9.25L6.25 14.5V11.5H4.25C3.71957 11.5 3.21086 11.2893 2.83579 10.9142C2.46071 10.5391 2.25 10.0304 2.25 9.5V5.5Z" fill="#111928"/>
<path d="M15.2495 7.5V9.5C15.2495 10.5609 14.8281 11.5783 14.078 12.3284C13.3278 13.0786 12.3104 13.5 11.2495 13.5H10.0775L8.31152 15.267C8.59152 15.416 8.91052 15.5 9.24952 15.5H11.2495L14.2495 18.5V15.5H16.2495C16.78 15.5 17.2887 15.2893 17.6637 14.9142C18.0388 14.5391 18.2495 14.0304 18.2495 13.5V9.5C18.2495 8.96957 18.0388 8.46086 17.6637 8.08579C17.2887 7.71071 16.78 7.5 16.2495 7.5H15.2495Z" fill="#111928"/>
</svg>
