<svg width="14" height="14" viewBox="0 0 14 14" fill="none" xmlns="http://www.w3.org/2000/svg">
<mask id="path-1-inside-1_946_14175" fill="white">
<path fill-rule="evenodd" clip-rule="evenodd" d="M11.6957 3.70519C11.8269 3.83646 11.9006 4.01448 11.9006 4.20009C11.9006 4.38571 11.8269 4.56372 11.6957 4.69499L6.09567 10.295C5.9644 10.4262 5.78639 10.4999 5.60077 10.4999C5.41516 10.4999 5.23714 10.4262 5.10587 10.295L2.30587 7.49499C2.17836 7.36297 2.10781 7.18615 2.1094 7.00261C2.111 6.81908 2.18461 6.64351 2.3144 6.51372C2.44419 6.38394 2.61975 6.31032 2.80329 6.30872C2.98683 6.30713 3.16365 6.37768 3.29567 6.50519L5.60077 8.81029L10.7059 3.70519C10.8371 3.57397 11.0152 3.50024 11.2008 3.50024C11.3864 3.50024 11.5644 3.57397 11.6957 3.70519Z"/>
</mask>
<path fill-rule="evenodd" clip-rule="evenodd" d="M11.6957 3.70519C11.8269 3.83646 11.9006 4.01448 11.9006 4.20009C11.9006 4.38571 11.8269 4.56372 11.6957 4.69499L6.09567 10.295C5.9644 10.4262 5.78639 10.4999 5.60077 10.4999C5.41516 10.4999 5.23714 10.4262 5.10587 10.295L2.30587 7.49499C2.17836 7.36297 2.10781 7.18615 2.1094 7.00261C2.111 6.81908 2.18461 6.64351 2.3144 6.51372C2.44419 6.38394 2.61975 6.31032 2.80329 6.30872C2.98683 6.30713 3.16365 6.37768 3.29567 6.50519L5.60077 8.81029L10.7059 3.70519C10.8371 3.57397 11.0152 3.50024 11.2008 3.50024C11.3864 3.50024 11.5644 3.57397 11.6957 3.70519Z" fill="#1F2A37"/>
<path d="M11.6957 3.70519L12.7565 2.64469L12.7562 2.64437L11.6957 3.70519ZM11.9006 4.20009H13.4006H11.9006ZM11.6957 4.69499L12.7563 5.75565L12.7565 5.75549L11.6957 4.69499ZM6.09567 10.295L7.15617 11.3558L7.15633 11.3557L6.09567 10.295ZM5.10587 10.295L4.04521 11.3557L4.04537 11.3558L5.10587 10.295ZM2.30587 7.49499L1.22694 8.53706L1.236 8.54644L1.24521 8.55565L2.30587 7.49499ZM3.29567 6.50519L4.35633 5.44453L4.34712 5.43532L4.33774 5.42626L3.29567 6.50519ZM5.60077 8.81029L4.54011 9.87095L5.60077 10.9316L6.66143 9.87095L5.60077 8.81029ZM10.7059 3.70519L9.64537 2.64437L9.64521 2.64453L10.7059 3.70519ZM11.2008 3.50024V5.00024V3.50024ZM10.6349 4.76569C10.4849 4.61567 10.4006 4.41222 10.4006 4.20009H13.4006C13.4006 3.61674 13.1689 3.05726 12.7565 2.64469L10.6349 4.76569ZM10.4006 4.20009C10.4006 3.98797 10.4849 3.78452 10.6349 3.63449L12.7565 5.75549C13.1689 5.34293 13.4006 4.78345 13.4006 4.20009H10.4006ZM10.635 3.63433L5.03501 9.23433L7.15633 11.3557L12.7563 5.75565L10.635 3.63433ZM5.03517 9.23417C5.18519 9.0842 5.38864 8.99995 5.60077 8.99995V11.9999C6.18414 11.9999 6.74361 11.7683 7.15617 11.3558L5.03517 9.23417ZM5.60077 8.99995C5.81291 8.99995 6.01635 9.0842 6.16637 9.23417L4.04537 11.3558C4.45793 11.7683 5.01741 11.9999 5.60077 11.9999V8.99995ZM6.16653 9.23433L3.36653 6.43433L1.24521 8.55565L4.04521 11.3557L6.16653 9.23433ZM3.38481 6.45293C3.53053 6.60381 3.61117 6.80589 3.60934 7.01565L0.609458 6.98958C0.604446 7.56641 0.826194 8.12214 1.22694 8.53706L3.38481 6.45293ZM3.60934 7.01565C3.60752 7.22541 3.52339 7.42605 3.37506 7.57438L1.25374 5.45306C0.845842 5.86096 0.614471 6.41275 0.609458 6.98958L3.60934 7.01565ZM3.37506 7.57438C3.22673 7.72271 3.02608 7.80684 2.81633 7.80867L2.79026 4.80878C2.21343 4.81379 1.66164 5.04516 1.25374 5.45306L3.37506 7.57438ZM2.81633 7.80867C2.60657 7.81049 2.40449 7.72985 2.25361 7.58413L4.33774 5.42626C3.92282 5.02551 3.36709 4.80377 2.79026 4.80878L2.81633 7.80867ZM2.23501 7.56586L4.54011 9.87095L6.66143 7.74963L4.35633 5.44453L2.23501 7.56586ZM6.66143 9.87095L11.7665 4.76585L9.64521 2.64453L4.54011 7.74963L6.66143 9.87095ZM11.7664 4.76602C11.6164 4.91599 11.4129 5.00024 11.2008 5.00024V2.00024C10.6174 2.00024 10.0579 2.23194 9.64537 2.64437L11.7664 4.76602ZM11.2008 5.00024C10.9886 5.00024 10.7852 4.91599 10.6352 4.76602L12.7562 2.64437C12.3436 2.23194 11.7841 2.00024 11.2008 2.00024V5.00024Z" fill="white" mask="url(#path-1-inside-1_946_14175)"/>
</svg>
