<svg width="20" height="20" viewBox="0 0 20 20" fill="none" xmlns="http://www.w3.org/2000/svg">
<path fill-rule="evenodd" clip-rule="evenodd" d="M5.83323 3.76398C7.06659 2.93987 8.51664 2.5 10 2.5C11.9885 2.50218 13.8948 3.29306 15.3009 4.69911C16.7069 6.10516 17.4978 8.01155 17.5 10C17.5 11.4834 17.0601 12.9334 16.236 14.1668C15.4119 15.4001 14.2406 16.3614 12.8701 16.9291C11.4997 17.4968 9.99168 17.6453 8.53683 17.3559C7.08197 17.0665 5.7456 16.3522 4.6967 15.3033C3.64781 14.2544 2.9335 12.918 2.64411 11.4632C2.35472 10.0083 2.50325 8.50032 3.07091 7.12987C3.63856 5.75943 4.59986 4.58809 5.83323 3.76398ZM9 10.3C9.99411 10.3 10.8 9.49411 10.8 8.5C10.8 7.50589 9.99411 6.7 9 6.7C8.00589 6.7 7.2 7.50589 7.2 8.5C7.2 9.49411 8.00589 10.3 9 10.3ZM9 11.5C10.6569 11.5 12 10.1569 12 8.5C12 6.84315 10.6569 5.5 9 5.5C7.34315 5.5 6 6.84315 6 8.5C6 10.1569 7.34315 11.5 9 11.5ZM12.4243 11.0757L13.9243 12.5757C14.1586 12.8101 14.1586 13.1899 13.9243 13.4243C13.6899 13.6586 13.3101 13.6586 13.0757 13.4243L11.5757 11.9243C11.3414 11.6899 11.3414 11.3101 11.5757 11.0757C11.8101 10.8414 12.1899 10.8414 12.4243 11.0757Z" fill="#1A56DB"/>
</svg>
