<svg width="20" height="20" viewBox="0 0 20 20" fill="none" xmlns="http://www.w3.org/2000/svg">
<path d="M11.1884 10.0103L15.5992 5.59943C15.6788 5.52255 15.7423 5.4306 15.786 5.32893C15.8297 5.22726 15.8527 5.11791 15.8536 5.00726C15.8546 4.89661 15.8335 4.78688 15.7916 4.68447C15.7497 4.58205 15.6878 4.48901 15.6096 4.41076C15.5313 4.33252 15.4383 4.27064 15.3359 4.22874C15.2335 4.18684 15.1237 4.16576 15.0131 4.16672C14.9024 4.16768 14.7931 4.19067 14.6914 4.23434C14.5897 4.27802 14.4978 4.3415 14.4209 4.42109L10.0101 8.83193L5.59924 4.42109C5.44208 4.2693 5.23157 4.1853 5.01308 4.1872C4.79458 4.1891 4.58557 4.27674 4.43106 4.43125C4.27656 4.58575 4.18891 4.79476 4.18702 5.01326C4.18512 5.23176 4.26911 5.44226 4.42091 5.59943L8.83174 10.0103L4.42091 14.4211C4.34132 14.498 4.27783 14.5899 4.23416 14.6916C4.19049 14.7933 4.1675 14.9026 4.16654 15.0133C4.16557 15.1239 4.18666 15.2336 4.22856 15.3361C4.27046 15.4385 4.33234 15.5315 4.41058 15.6098C4.48883 15.688 4.58187 15.7499 4.68428 15.7918C4.7867 15.8337 4.89643 15.8548 5.00708 15.8538C5.11773 15.8528 5.22708 15.8299 5.32875 15.7862C5.43042 15.7425 5.52237 15.679 5.59924 15.5994L10.0101 11.1886L14.4209 15.5994C14.5781 15.7512 14.7886 15.8352 15.0071 15.8333C15.2256 15.8314 15.4346 15.7438 15.5891 15.5893C15.7436 15.4348 15.8312 15.2258 15.8331 15.0073C15.835 14.7888 15.751 14.5783 15.5992 14.4211L11.1884 10.0103Z" fill="#9CA3AF"/>
</svg>
