<svg width="24" height="24" viewBox="0 0 24 24" fill="none" xmlns="http://www.w3.org/2000/svg">
<path d="M13.2383 6.38074C14.0269 6.56557 14.7409 7.00445 15.2808 7.63619C15.3641 7.73869 15.4657 7.82295 15.58 7.88414C15.6943 7.94534 15.8189 7.98228 15.9468 7.99285C16.0746 8.00342 16.2032 7.98742 16.3252 7.94576C16.4472 7.9041 16.5601 7.83759 16.6577 7.75004C16.7552 7.66249 16.8353 7.5556 16.8936 7.43549C16.9518 7.31537 16.9869 7.18438 16.997 7.04999C17.007 6.9156 16.9918 6.78045 16.9522 6.65224C16.9126 6.52403 16.8493 6.40529 16.766 6.30278C15.9591 5.34417 14.8875 4.67434 13.7009 4.38679C13.4979 4.3355 13.2979 4.31704 13.0959 4.28422V3.02569C13.0959 2.75366 12.993 2.49277 12.81 2.30042C12.627 2.10806 12.3788 2 12.12 2C11.8612 2 11.613 2.10806 11.43 2.30042C11.247 2.49277 11.1442 2.75366 11.1442 3.02569V4.31499C10.3203 4.41676 9.54076 4.76171 8.89573 5.30992C8.25069 5.85812 7.76657 6.58714 7.49942 7.41258C7.37724 7.90152 7.35187 8.41161 7.42489 8.91127C7.4979 9.41093 7.66775 9.8895 7.92391 10.3174C8.79973 11.7638 10.1849 12.7869 11.7765 13.1626C12.8547 13.4087 13.7995 14.0859 14.4113 15.0509C14.5308 15.2434 14.6127 15.459 14.652 15.6852C14.6914 15.9113 14.6875 16.1434 14.6406 16.3679C14.2971 17.6736 12.5328 18.3967 10.7821 17.9495C9.98564 17.7634 9.26559 17.3171 8.72508 16.6746C8.64287 16.5712 8.54209 16.4859 8.42851 16.4234C8.31492 16.361 8.19074 16.3227 8.06306 16.3107C7.80521 16.2864 7.54876 16.3709 7.35012 16.5454C7.15148 16.7199 7.02694 16.9702 7.00388 17.2412C6.99246 17.3754 7.0063 17.5106 7.04462 17.6392C7.08293 17.7678 7.14496 17.8872 7.22716 17.9906C8.03571 18.9679 9.1185 19.6502 10.3196 19.9394C10.5923 20.0082 10.8691 20.0578 11.1481 20.0881V20.9743C11.1481 21.2463 11.2509 21.5072 11.4339 21.6996C11.6169 21.8919 11.8651 22 12.1239 22C12.3827 22 12.6309 21.8919 12.8139 21.6996C12.9969 21.5072 13.0998 21.2463 13.0998 20.9743V19.9732C13.8813 19.839 14.6131 19.4829 15.2162 18.9435C15.8193 18.4042 16.2708 17.7019 16.522 16.9126C16.6432 16.4237 16.6677 15.9139 16.5942 15.4147C16.5207 14.9155 16.3507 14.4374 16.0946 14.0098C15.2181 12.5651 13.8341 11.5429 12.2439 11.1656C11.166 10.9196 10.2213 10.2428 9.60919 9.27832C9.48977 9.08557 9.408 8.86978 9.36863 8.64351C9.32926 8.41725 9.33308 8.18501 9.37986 7.96031C9.72434 6.65665 11.4916 5.93354 13.2383 6.38074Z" fill="#FFCA0A"/>
</svg>
