<svg width="16" height="17" viewBox="0 0 16 17" fill="none" xmlns="http://www.w3.org/2000/svg">
<path d="M3.80604 8.97108C3.93106 8.84605 4.0013 8.67649 4.0013 8.49967C4.0013 8.32286 3.93106 8.15329 3.80604 8.02827C3.68102 7.90325 3.51145 7.83301 3.33464 7.83301C3.15782 7.83301 2.98826 7.90325 2.86323 8.02827C2.73821 8.15329 2.66797 8.32286 2.66797 8.49967C2.66797 8.67649 2.73821 8.84605 2.86323 8.97108C2.98826 9.0961 3.15782 9.16634 3.33464 9.16634C3.51145 9.16634 3.68102 9.0961 3.80604 8.97108Z" fill="white"/>
<path d="M3.80604 8.97108C3.93106 8.84605 4.0013 8.67649 4.0013 8.49967C4.0013 8.32286 3.93106 8.15329 3.80604 8.02827C3.68102 7.90325 3.51145 7.83301 3.33464 7.83301C3.15782 7.83301 2.98826 7.90325 2.86323 8.02827C2.73821 8.15329 2.66797 8.32286 2.66797 8.49967C2.66797 8.67649 2.73821 8.84605 2.86323 8.97108C2.98826 9.0961 3.15782 9.16634 3.33464 9.16634C3.51145 9.16634 3.68102 9.0961 3.80604 8.97108Z" fill="#6B7280"/>
<path d="M8.47271 8.97108C8.59773 8.84605 8.66797 8.67649 8.66797 8.49967C8.66797 8.32286 8.59773 8.15329 8.47271 8.02827C8.34768 7.90325 8.17811 7.83301 8.0013 7.83301C7.82449 7.83301 7.65492 7.90325 7.5299 8.02827C7.40487 8.15329 7.33464 8.32286 7.33464 8.49967C7.33464 8.67649 7.40487 8.84605 7.5299 8.97108C7.65492 9.0961 7.82449 9.16634 8.0013 9.16634C8.17811 9.16634 8.34768 9.0961 8.47271 8.97108Z" fill="white"/>
<path d="M8.47271 8.97108C8.59773 8.84605 8.66797 8.67649 8.66797 8.49967C8.66797 8.32286 8.59773 8.15329 8.47271 8.02827C8.34768 7.90325 8.17811 7.83301 8.0013 7.83301C7.82449 7.83301 7.65492 7.90325 7.5299 8.02827C7.40487 8.15329 7.33464 8.32286 7.33464 8.49967C7.33464 8.67649 7.40487 8.84605 7.5299 8.97108C7.65492 9.0961 7.82449 9.16634 8.0013 9.16634C8.17811 9.16634 8.34768 9.0961 8.47271 8.97108Z" fill="#6B7280"/>
<path d="M13.1394 8.97108C13.2644 8.84605 13.3346 8.67649 13.3346 8.49967C13.3346 8.32286 13.2644 8.15329 13.1394 8.02827C13.0143 7.90325 12.8448 7.83301 12.668 7.83301C12.4912 7.83301 12.3216 7.90325 12.1966 8.02827C12.0715 8.15329 12.0013 8.32286 12.0013 8.49967C12.0013 8.67649 12.0715 8.84605 12.1966 8.97108C12.3216 9.0961 12.4912 9.16634 12.668 9.16634C12.8448 9.16634 13.0143 9.0961 13.1394 8.97108Z" fill="white"/>
<path d="M13.1394 8.97108C13.2644 8.84605 13.3346 8.67649 13.3346 8.49967C13.3346 8.32286 13.2644 8.15329 13.1394 8.02827C13.0143 7.90325 12.8448 7.83301 12.668 7.83301C12.4912 7.83301 12.3216 7.90325 12.1966 8.02827C12.0715 8.15329 12.0013 8.32286 12.0013 8.49967C12.0013 8.67649 12.0715 8.84605 12.1966 8.97108C12.3216 9.0961 12.4912 9.16634 12.668 9.16634C12.8448 9.16634 13.0143 9.0961 13.1394 8.97108Z" fill="#6B7280"/>
<path d="M3.33464 8.49967H3.3413M8.0013 8.49967H8.00797M12.668 8.49967H12.6746M4.0013 8.49967C4.0013 8.67649 3.93106 8.84605 3.80604 8.97108C3.68102 9.0961 3.51145 9.16634 3.33464 9.16634C3.15782 9.16634 2.98826 9.0961 2.86323 8.97108C2.73821 8.84605 2.66797 8.67649 2.66797 8.49967C2.66797 8.32286 2.73821 8.15329 2.86323 8.02827C2.98826 7.90325 3.15782 7.83301 3.33464 7.83301C3.51145 7.83301 3.68102 7.90325 3.80604 8.02827C3.93106 8.15329 4.0013 8.32286 4.0013 8.49967ZM8.66797 8.49967C8.66797 8.67649 8.59773 8.84605 8.47271 8.97108C8.34768 9.0961 8.17811 9.16634 8.0013 9.16634C7.82449 9.16634 7.65492 9.0961 7.5299 8.97108C7.40487 8.84605 7.33464 8.67649 7.33464 8.49967C7.33464 8.32286 7.40487 8.15329 7.5299 8.02827C7.65492 7.90325 7.82449 7.83301 8.0013 7.83301C8.17811 7.83301 8.34768 7.90325 8.47271 8.02827C8.59773 8.15329 8.66797 8.32286 8.66797 8.49967ZM13.3346 8.49967C13.3346 8.67649 13.2644 8.84605 13.1394 8.97108C13.0143 9.0961 12.8448 9.16634 12.668 9.16634C12.4912 9.16634 12.3216 9.0961 12.1966 8.97108C12.0715 8.84605 12.0013 8.67649 12.0013 8.49967C12.0013 8.32286 12.0715 8.15329 12.1966 8.02827C12.3216 7.90325 12.4912 7.83301 12.668 7.83301C12.8448 7.83301 13.0143 7.90325 13.1394 8.02827C13.2644 8.15329 13.3346 8.32286 13.3346 8.49967Z" stroke="#6B7280" stroke-width="2" stroke-linecap="round" stroke-linejoin="round"/>
</svg>
