<svg width="16" height="16" viewBox="0 0 16 16" fill="none" xmlns="http://www.w3.org/2000/svg">
<path d="M7.69598 10.0444L7.69603 10.0444C7.77551 10.12 7.88848 10.1666 8.01129 10.1667L7.69598 10.0444ZM7.69598 10.0444L3.96265 6.49609L3.9627 6.49603M7.69598 10.0444L3.9627 6.49603M3.9627 6.49603L3.95631 6.49017M3.9627 6.49603L3.95631 6.49017M3.95631 6.49017C3.91593 6.4531 3.88523 6.41017 3.86465 6.36464C3.8441 6.31918 3.8337 6.2713 3.83327 6.22358C3.83283 6.17586 3.84235 6.1279 3.86201 6.08224C3.8817 6.0365 3.91152 5.99321 3.95108 5.95561C3.99069 5.91796 4.03919 5.8869 4.09437 5.86544C4.14959 5.84397 4.20956 5.83289 4.27057 5.83339C4.33157 5.83389 4.39127 5.84596 4.44597 5.8683C4.50064 5.89062 4.54843 5.9224 4.58722 5.96057L4.58717 5.96062M3.95631 6.49017L4.58717 5.96062M4.58717 5.96062L4.59346 5.96661M4.58717 5.96062L4.59346 5.96661M4.59346 5.96661L7.66693 8.88774L8.01139 9.21512M4.59346 5.96661L8.01139 9.21512M8.01139 9.21512L8.35584 8.88774M8.01139 9.21512L8.35584 8.88774M8.35584 8.88774L11.4256 5.97018C11.5056 5.8979 11.6171 5.8542 11.7372 5.85519C11.8587 5.8562 11.9701 5.90269 12.0488 5.97741C12.1266 6.05136 12.1657 6.14592 12.1666 6.23911C12.1674 6.33126 12.1308 6.42512 12.0564 6.49967L8.3268 10.0444L8.32674 10.0444M8.35584 8.88774L8.32674 10.0444M8.32674 10.0444C8.24726 10.12 8.1343 10.1666 8.01149 10.1667L8.32674 10.0444Z" fill="#6B7280" stroke="#6B7280"/>
</svg>
