<svg width="32" height="32" viewBox="0 0 32 32" fill="none" xmlns="http://www.w3.org/2000/svg">
<path d="M21 13C16.6 13 13 16.6 13 21C13 25.4 16.6 29 21 29C25.4 29 29 25.4 29 21C29 16.6 25.4 13 21 13ZM19 26.5C17.16 25.86 16.14 25 15.5 23.08L18.6 22.04V22.6C18.6 23.08 18.92 23.4 19.4 23.4H19.96L19 26.5ZM23 26.5L22.04 23.4H22.6C23.08 23.4 23.4 23.08 23.4 22.6V22.04L26.5 23.08C25.86 24.92 24.84 25.86 23 26.5ZM23.4 19.96V19.4C23.4 18.92 23.08 18.6 22.6 18.6H19.4C18.92 18.6 18.6 18.92 18.6 19.4V19.96L15.5 19.4C16.38 16.92 18.2 15 21 15C23.8 15 25.62 17.02 26.5 19.5L23.4 19.96Z" fill="#EFBB00"/>
<path fill-rule="evenodd" clip-rule="evenodd" d="M12.6082 15.5744C12.0952 15.7147 11.5561 15.7895 11 15.7895C7.55884 15.7895 4.76923 12.9265 4.76923 9.39474C4.76923 5.86302 7.55884 3 11 3C14.4412 3 17.2308 5.86302 17.2308 9.39474C17.2308 10.3127 17.0423 11.1855 16.7029 11.9746C15.0303 12.7761 13.6121 14.0294 12.6082 15.5744ZM11.7486 17.2105H8.92308C7.08764 17.2128 5.328 17.9621 4.03015 19.2941C2.7323 20.6261 2.0022 22.432 2 24.3158V28.579C2 28.9558 2.14588 29.3173 2.40554 29.5838C2.66521 29.8503 3.01739 30 3.38462 30H16.6503C13.3121 28.3763 11 24.9477 11 21C11 19.6603 11.2663 18.3804 11.7486 17.2105ZM13.931 17.2658C13.4258 18.2154 13.1064 19.2772 13.0223 20.4019C13.008 20.5931 13.0005 20.7862 13 20.9808L13 21C13 21.2685 13.0134 21.534 13.0396 21.7959C13.0517 21.9169 13.0665 22.0371 13.084 22.1564C13.3121 23.7145 13.9936 25.1305 14.9892 26.265C15.1074 26.3996 15.23 26.5303 15.3568 26.6568C16.553 27.8502 18.1222 28.6697 19.8687 28.9197C19.898 28.9239 19.9273 28.9279 19.9566 28.9318C19.9852 28.8174 20 28.699 20 28.579V24.3158C19.9997 24.0225 19.9817 23.7311 19.9466 23.4431L19 26.5C18.2782 26.249 17.6826 25.9641 17.1867 25.5946C17.036 25.4824 16.8945 25.3623 16.7615 25.233C16.6708 25.1449 16.584 25.0524 16.5009 24.9553C16.4786 24.9292 16.4565 24.9027 16.4347 24.876C16.0555 24.4096 15.7555 23.837 15.5108 23.1122L15.5 23.08L18.6 22.04V22.6C18.6 22.7543 18.6331 22.892 18.6938 23.0079C18.7681 23.1495 18.8838 23.2585 19.0312 23.3252C19.1385 23.3738 19.2627 23.4 19.4 23.4H19.9413C19.7806 22.1414 19.2944 20.949 18.5332 19.9479L15.5 19.4C15.6804 18.8916 15.9003 18.4068 16.16 17.9572C15.4632 17.6009 14.7098 17.366 13.931 17.2658Z" fill="#EFBB00"/>
</svg>
