<svg width="16" height="16" viewBox="0 0 16 16" fill="none" xmlns="http://www.w3.org/2000/svg">
<rect x="0.5" y="0.5" width="15" height="15" rx="7.5" fill="#9CA3AF"/>
<rect x="0.5" y="0.5" width="15" height="15" rx="7.5" stroke="white"/>
<path d="M9.72623 6.90926L9.72398 6.91241L6.51217 10.1245L7.47477 11.0868L10.6893 7.87241L9.72623 6.90926Z" fill="white"/>
<path d="M4.91279 8.525L5.87539 9.48815L9.08765 6.27602L9.0908 6.27377L8.1273 5.31017L4.91279 8.525Z" fill="white"/>
<path d="M4.39797 9.28292L3.52312 11.9073C3.46912 12.0688 3.51142 12.2475 3.63203 12.3677C3.71753 12.4536 3.83274 12.5 3.9502 12.5C3.9979 12.5 4.04605 12.4923 4.0924 12.4766L6.71648 11.6017L4.39797 9.28292Z" fill="white"/>
<path d="M11.97 4.02928C11.264 3.32357 10.1146 3.32357 9.40852 4.02928L8.76408 4.67378L11.3261 7.23601L11.9705 6.59151C12.6766 5.88536 12.6766 4.73544 11.97 4.02928Z" fill="white"/>
</svg>
