<svg width="16" height="16" viewBox="0 0 16 16" fill="none" xmlns="http://www.w3.org/2000/svg">
<path d="M2.20721 7.8434L2.13327 8.04098L2.22321 8.23181C2.73856 9.32528 3.55859 10.2468 4.58482 10.8856C5.60869 11.523 6.79438 11.852 8.00016 11.8334C9.20594 11.852 10.3916 11.523 11.4155 10.8856C12.4417 10.2468 13.2618 9.32528 13.7771 8.23181L13.8671 8.04098L13.7931 7.8434C13.7013 7.59819 13.4689 7.25394 13.1728 6.90082C12.864 6.53258 12.4485 6.11028 11.9479 5.70973C10.9545 4.91492 9.57581 4.16665 8.00016 4.16665C6.42451 4.16665 5.04585 4.91492 4.05246 5.70973C3.55184 6.11028 3.1363 6.53258 2.82753 6.90082C2.53144 7.25394 2.29898 7.59819 2.20721 7.8434ZM9.80168 6.79624L10.2174 6.51846L9.80168 6.79624C10.0398 7.15255 10.1668 7.57145 10.1668 7.99998C10.1668 8.57462 9.93856 9.12572 9.53223 9.53204C9.1259 9.93837 8.5748 10.1666 8.00016 10.1666C7.57164 10.1666 7.15273 10.0396 6.79643 9.8015C6.44012 9.56342 6.16241 9.22503 5.99842 8.82913C5.83443 8.43322 5.79153 7.99758 5.87513 7.57728C5.95873 7.15699 6.16508 6.77093 6.4681 6.46791C6.77111 6.1649 7.15718 5.95855 7.57747 5.87494C7.99776 5.79134 8.4334 5.83425 8.82931 5.99824C9.22522 6.16223 9.5636 6.43994 9.80168 6.79624ZM8.00016 6.16665C7.63756 6.16665 7.28311 6.27417 6.98162 6.47562C6.68013 6.67707 6.44514 6.9634 6.30638 7.29839C6.16762 7.63339 6.13132 8.00201 6.20206 8.35765C6.2728 8.71328 6.4474 9.03995 6.7038 9.29634C6.9602 9.55274 7.28686 9.72735 7.6425 9.79809C7.99813 9.86883 8.36675 9.83252 8.70175 9.69376C9.03675 9.555 9.32307 9.32002 9.52452 9.01852C9.72597 8.71703 9.8335 8.36258 9.8335 7.99998C9.8335 7.51375 9.64034 7.04743 9.29653 6.70362C8.95271 6.3598 8.48639 6.16665 8.00016 6.16665ZM8.00016 12.1666C5.99303 12.1666 4.44189 11.351 3.38882 10.3981C2.8611 9.92053 2.46373 9.4129 2.20127 8.96591C1.9282 8.50086 1.8335 8.15729 1.8335 7.99998C1.8335 7.96298 1.85033 7.86091 1.92897 7.68529C2.00376 7.51826 2.12008 7.31637 2.27898 7.09051C2.59649 6.63919 3.06317 6.12169 3.64237 5.6327C4.80869 4.64806 6.36469 3.83331 8.00016 3.83331C9.63563 3.83331 11.1916 4.64806 12.358 5.6327C12.9372 6.12169 13.4038 6.63919 13.7214 7.09051C13.8802 7.31637 13.9966 7.51826 14.0714 7.68529C14.15 7.86091 14.1668 7.96298 14.1668 7.99998C14.1668 8.15729 14.0721 8.50086 13.7991 8.96591C13.5366 9.4129 13.1392 9.92053 12.6115 10.3981C11.5584 11.351 10.0073 12.1666 8.00016 12.1666Z" fill="#111928" stroke="#6B7280"/>
</svg>
