<svg width="24" height="24" viewBox="0 0 24 24" fill="none" xmlns="http://www.w3.org/2000/svg">
<path d="M3.54472 11.8528L3.47078 12.0503L3.56071 12.2412C4.31322 13.8378 5.51061 15.1834 7.00911 16.1162C8.50523 17.0476 10.238 17.528 12 17.5001C13.762 17.528 15.4948 17.0476 16.9909 16.1162C18.4894 15.1834 19.6868 13.8378 20.4393 12.2412L20.5292 12.0503L20.4553 11.8528C20.3333 11.5267 20.0079 11.0373 19.5674 10.5119C19.1142 9.97137 18.5026 9.34967 17.7654 8.75984C16.2988 7.58644 14.2848 6.5 12 6.5C9.71518 6.5 7.70118 7.58644 6.23463 8.75984C5.49743 9.34967 4.88585 9.97137 4.43262 10.5119C3.99207 11.0373 3.66673 11.5267 3.54472 11.8528ZM12 15.5C11.3078 15.5 10.6311 15.2947 10.0555 14.9101C9.47993 14.5256 9.03133 13.9789 8.76642 13.3394C8.50151 12.6999 8.4322 11.9961 8.56725 11.3172C8.7023 10.6383 9.03564 10.0146 9.52513 9.52513C10.0146 9.03564 10.6383 8.7023 11.3172 8.56725C11.9961 8.4322 12.6999 8.50151 13.3394 8.76642C13.9789 9.03133 14.5256 9.47993 14.9101 10.0555C15.2947 10.6311 15.5 11.3078 15.5 12C15.5 12.9283 15.1313 13.8185 14.4749 14.4749C13.8185 15.1313 12.9283 15.5 12 15.5ZM12 9.5C11.5055 9.5 11.0222 9.64662 10.6111 9.92133C10.2 10.196 9.87952 10.5865 9.6903 11.0433C9.50108 11.5001 9.45157 12.0028 9.54804 12.4877C9.6445 12.9727 9.8826 13.4181 10.2322 13.7678C10.5819 14.1174 11.0273 14.3555 11.5123 14.452C11.9972 14.5484 12.4999 14.4989 12.9567 14.3097C13.4135 14.1205 13.804 13.8 14.0787 13.3889C14.3534 12.9778 14.5 12.4945 14.5 12C14.5 11.337 14.2366 10.7011 13.7678 10.2322C13.2989 9.76339 12.663 9.5 12 9.5ZM12 18.5C8.9172 18.5 6.53273 17.2462 4.91524 15.7825C4.10531 15.0496 3.49296 14.2684 3.08607 13.5755C2.66858 12.8645 2.5 12.3025 2.5 12C2.5 11.8937 2.54086 11.7031 2.66504 11.4258C2.78537 11.157 2.96876 10.8402 3.21375 10.4919C3.70345 9.79588 4.41842 9.00404 5.30204 8.25805C7.07719 6.75941 9.46653 5.5 12 5.5C14.5335 5.5 16.9228 6.75941 18.698 8.25805C19.5816 9.00404 20.2965 9.79588 20.7862 10.4919C21.0312 10.8402 21.2146 11.157 21.335 11.4258C21.4591 11.7031 21.5 11.8937 21.5 12C21.5 12.3025 21.3314 12.8645 20.9139 13.5755C20.507 14.2684 19.8947 15.0496 19.0848 15.7825C17.4673 17.2462 15.0828 18.5 12 18.5Z" fill="#111928" stroke="#6B7280"/>
</svg>
