<svg width="33" height="32" viewBox="0 0 33 32" fill="none" xmlns="http://www.w3.org/2000/svg">
<path d="M12.3336 9.33335V2.84002C11.683 3.01999 11.0894 3.36384 10.6096 3.83869L6.83897 7.60935C6.36506 8.08988 6.02137 8.6832 5.8403 9.33335H12.3336Z" fill="#EFBB00"/>
<path d="M24.4216 2.66669H15.0003V9.33335C15.0003 10.0406 14.7193 10.7189 14.2193 11.219C13.7192 11.7191 13.0409 12 12.3336 12H5.66697V26.6667C5.65626 27.362 5.92171 28.0332 6.4051 28.533C6.88848 29.0329 7.55037 29.3207 8.24563 29.3334H24.4216C25.1169 29.3207 25.7788 29.0329 26.2622 28.533C26.7456 28.0332 27.011 27.362 27.0003 26.6667V5.33335C27.011 4.63806 26.7456 3.96689 26.2622 3.467C25.7788 2.96712 25.1169 2.67931 24.4216 2.66669ZM20.4216 22.6667H12.1043C11.7507 22.6667 11.4115 22.5262 11.1615 22.2762C10.9114 22.0261 10.771 21.687 10.771 21.3334C10.771 20.9797 10.9114 20.6406 11.1615 20.3905C11.4115 20.1405 11.7507 20 12.1043 20H20.4216C20.7753 20 21.1144 20.1405 21.3644 20.3905C21.6145 20.6406 21.755 20.9797 21.755 21.3334C21.755 21.687 21.6145 22.0261 21.3644 22.2762C21.1144 22.5262 20.7753 22.6667 20.4216 22.6667ZM20.4216 17.3334H12.1043C11.7507 17.3334 11.4115 17.1929 11.1615 16.9428C10.9114 16.6928 10.771 16.3536 10.771 16C10.771 15.6464 10.9114 15.3073 11.1615 15.0572C11.4115 14.8072 11.7507 14.6667 12.1043 14.6667H20.4216C20.7753 14.6667 21.1144 14.8072 21.3644 15.0572C21.6145 15.3073 21.755 15.6464 21.755 16C21.755 16.3536 21.6145 16.6928 21.3644 16.9428C21.1144 17.1929 20.7753 17.3334 20.4216 17.3334Z" fill="#EFBB00"/>
</svg>
