<svg width="24" height="24" viewBox="0 0 24 24" fill="none" xmlns="http://www.w3.org/2000/svg">
<path d="M18.066 2H9.828C9.027 2 8.273 2.312 7.707 2.879L4.879 5.707C4.312 6.273 4 7.027 4 7.829V20C4 21.103 4.867 22 5.934 22H18.067C19.133 22 20 21.103 20 20V4C20 2.897 19.133 2 18.066 2ZM9 4.414V7H6.414L9 4.414ZM6 20V9H9C10.103 9 11 8.103 11 7V3.996L17.994 3.974C17.994 3.974 18 3.982 18 4L18.066 20H6Z" fill="#1F2A37"/>
<path d="M12.7076 11.8787L12.0005 12.5858L11.2933 11.8787C11.1058 11.6911 10.8515 11.5858 10.5862 11.5858C10.321 11.5858 10.0667 11.6911 9.87913 11.8787C9.6916 12.0662 9.58624 12.3206 9.58624 12.5858C9.58624 12.851 9.6916 13.1054 9.87913 13.2929L10.5862 14L9.87913 14.7071C9.6916 14.8946 9.58624 15.149 9.58624 15.4142C9.58624 15.6794 9.6916 15.9338 9.87913 16.1213C10.0667 16.3089 10.321 16.4142 10.5862 16.4142C10.8515 16.4142 11.1058 16.3089 11.2933 16.1213L12.0005 15.4142L12.7076 16.1213C12.8951 16.3089 13.1495 16.4142 13.4147 16.4142C13.6799 16.4142 13.9342 16.3089 14.1218 16.1213C14.3093 15.9338 14.4147 15.6794 14.4147 15.4142C14.4147 15.149 14.3093 14.8946 14.1218 14.7071L13.4147 14L14.1218 13.2929C14.3093 13.1054 14.4147 12.851 14.4147 12.5858C14.4147 12.3206 14.3093 12.0662 14.1218 11.8787C13.9342 11.6911 13.6799 11.5858 13.4147 11.5858C13.1495 11.5858 12.8951 11.6911 12.7076 11.8787Z" fill="#1F2A37"/>
</svg>
