<svg width="24" height="24" viewBox="0 0 24 24" fill="none" xmlns="http://www.w3.org/2000/svg">
<path d="M18.066 2.00001H9.828C9.43389 1.99889 9.04348 2.07601 8.67939 2.22689C8.3153 2.37778 7.98479 2.59944 7.707 2.87901L4.87901 5.70701C4.59931 5.98491 4.37759 6.31559 4.22669 6.67986C4.0758 7.04413 3.99875 7.43473 4 7.82901V20C3.99198 20.5215 4.19106 21.0249 4.5536 21.3998C4.91614 21.7747 5.41256 21.9905 5.934 22H18.066C18.5875 21.9905 19.0839 21.7747 19.4464 21.3998C19.809 21.0249 20.008 20.5215 20 20V4.00001C20.008 3.47854 19.809 2.97516 19.4464 2.60025C19.0839 2.22534 18.5875 2.00948 18.066 2.00001ZM9 4.41401V7.00001H6.414L9 4.41401ZM6 20V9.00001H9C9.53044 9.00001 10.0391 8.7893 10.4142 8.41423C10.7893 8.03915 11 7.53045 11 7.00001V4.00001L17.994 3.97801C17.9981 3.98461 18.0002 3.99225 18 4.00001L18.066 20H6Z" fill="#EFBB00"/>
<path d="M15.066 11H8.828C8.56279 11 8.30843 11.1054 8.1209 11.2929C7.93336 11.4804 7.828 11.7348 7.828 12C7.828 12.2652 7.93336 12.5196 8.1209 12.7071C8.30843 12.8947 8.56279 13 8.828 13H15.066C15.3312 13 15.5856 12.8947 15.7731 12.7071C15.9606 12.5196 16.066 12.2652 16.066 12C16.066 11.7348 15.9606 11.4804 15.7731 11.2929C15.5856 11.1054 15.3312 11 15.066 11Z" fill="#EFBB00"/>
<path d="M15.066 15H8.828C8.56279 15 8.30843 15.1054 8.1209 15.2929C7.93336 15.4804 7.828 15.7348 7.828 16C7.828 16.2652 7.93336 16.5196 8.1209 16.7071C8.30843 16.8947 8.56279 17 8.828 17H15.066C15.3312 17 15.5856 16.8947 15.7731 16.7071C15.9606 16.5196 16.066 16.2652 16.066 16C16.066 15.7348 15.9606 15.4804 15.7731 15.2929C15.5856 15.1054 15.3312 15 15.066 15Z" fill="#EFBB00"/>
</svg>
