<svg width="17" height="16" viewBox="0 0 17 16" fill="none" xmlns="http://www.w3.org/2000/svg">
<path d="M2.75001 4.66667H3.69934C3.83783 5.10185 4.11117 5.48169 4.47983 5.75124C4.84848 6.0208 5.29332 6.16608 5.75001 6.16608C6.2067 6.16608 6.65154 6.0208 7.02019 5.75124C7.38885 5.48169 7.66219 5.10185 7.80068 4.66667H14.75C14.9268 4.66667 15.0964 4.59643 15.2214 4.47141C15.3464 4.34638 15.4167 4.17681 15.4167 4C15.4167 3.82319 15.3464 3.65362 15.2214 3.5286C15.0964 3.40357 14.9268 3.33334 14.75 3.33334H7.80068C7.66219 2.89815 7.38885 2.51831 7.02019 2.24876C6.65154 1.97921 6.2067 1.83392 5.75001 1.83392C5.29332 1.83392 4.84848 1.97921 4.47983 2.24876C4.11117 2.51831 3.83783 2.89815 3.69934 3.33334H2.75001C2.5732 3.33334 2.40363 3.40357 2.27861 3.5286C2.15358 3.65362 2.08334 3.82319 2.08334 4C2.08334 4.17681 2.15358 4.34638 2.27861 4.47141C2.40363 4.59643 2.5732 4.66667 2.75001 4.66667Z" fill="#111928"/>
<path d="M14.75 7.33334H13.8007C13.6622 6.89815 13.3888 6.51831 13.0202 6.24876C12.6515 5.97921 12.2067 5.83392 11.75 5.83392C11.2933 5.83392 10.8485 5.97921 10.4798 6.24876C10.1112 6.51831 9.83783 6.89815 9.69934 7.33334H2.75001C2.5732 7.33334 2.40363 7.40357 2.27861 7.5286C2.15358 7.65362 2.08334 7.82319 2.08334 8C2.08334 8.17681 2.15358 8.34638 2.27861 8.47141C2.40363 8.59643 2.5732 8.66667 2.75001 8.66667H9.69934C9.83783 9.10185 10.1112 9.48169 10.4798 9.75124C10.8485 10.0208 11.2933 10.1661 11.75 10.1661C12.2067 10.1661 12.6515 10.0208 13.0202 9.75124C13.3888 9.48169 13.6622 9.10185 13.8007 8.66667H14.75C14.9268 8.66667 15.0964 8.59643 15.2214 8.47141C15.3464 8.34638 15.4167 8.17681 15.4167 8C15.4167 7.82319 15.3464 7.65362 15.2214 7.5286C15.0964 7.40357 14.9268 7.33334 14.75 7.33334Z" fill="#111928"/>
<path d="M14.75 11.3333H7.80068C7.66219 10.8982 7.38885 10.5183 7.02019 10.2488C6.65154 9.97921 6.2067 9.83392 5.75001 9.83392C5.29332 9.83392 4.84848 9.97921 4.47983 10.2488C4.11117 10.5183 3.83783 10.8982 3.69934 11.3333H2.75001C2.5732 11.3333 2.40363 11.4036 2.27861 11.5286C2.15358 11.6536 2.08334 11.8232 2.08334 12C2.08334 12.1768 2.15358 12.3464 2.27861 12.4714C2.40363 12.5964 2.5732 12.6667 2.75001 12.6667H3.69934C3.83783 13.1019 4.11117 13.4817 4.47983 13.7512C4.84848 14.0208 5.29332 14.1661 5.75001 14.1661C6.2067 14.1661 6.65154 14.0208 7.02019 13.7512C7.38885 13.4817 7.66219 13.1019 7.80068 12.6667H14.75C14.9268 12.6667 15.0964 12.5964 15.2214 12.4714C15.3464 12.3464 15.4167 12.1768 15.4167 12C15.4167 11.8232 15.3464 11.6536 15.2214 11.5286C15.0964 11.4036 14.9268 11.3333 14.75 11.3333Z" fill="#111928"/>
</svg>
