<svg width="20" height="20" viewBox="0 0 20 20" fill="none" xmlns="http://www.w3.org/2000/svg">
<path d="M9.94686 17.4954C8.84947 17.5362 7.75962 17.3051 6.78214 16.8246C5.80466 16.344 4.97244 15.63 4.36554 14.7513C1.98174 10.8958 4.36554 7.26998 5.15017 6.25023L5.2258 6.15289C5.56909 5.8117 5.80953 5.38749 5.9215 4.92547C6.03347 4.46346 6.01279 3.98093 5.86165 3.5293C5.81085 3.36835 5.81432 3.19611 5.87157 3.03717C5.92882 2.87822 6.03692 2.74071 6.18043 2.64426C6.32395 2.54781 6.49553 2.49736 6.67069 2.50011C6.84585 2.50286 7.01563 2.55866 7.15578 2.65956C7.26633 2.73936 7.41594 2.82873 7.59215 2.93645C8.84781 3.5799 9.91953 4.50971 10.713 5.64409C11.5065 6.77846 11.9975 8.08265 12.1428 9.44194C12.5579 8.59586 12.7844 7.6759 12.8077 6.74096C12.8148 6.59671 12.8626 6.45701 12.9459 6.33676C13.0291 6.2165 13.1449 6.1202 13.2807 6.05812C13.4165 5.99604 13.5673 5.97051 13.7171 5.98425C13.8668 5.99799 14.0099 6.05048 14.131 6.13613C15.4908 7.09763 17.9859 10.9883 15.8091 14.4673C15.1845 15.4123 14.3173 16.1872 13.2906 16.7175C12.264 17.2479 11.1125 17.5157 9.94686 17.4954Z" fill="#9B1C1C"/>
<path d="M9.94686 17.4954C8.84947 17.5362 7.75962 17.3051 6.78214 16.8246C5.80466 16.344 4.97244 15.63 4.36554 14.7513C1.98174 10.8958 4.36554 7.26998 5.15017 6.25023L5.2258 6.15289C5.56909 5.8117 5.80953 5.38749 5.9215 4.92547C6.03347 4.46346 6.01279 3.98093 5.86165 3.5293C5.81085 3.36835 5.81432 3.19611 5.87157 3.03717C5.92882 2.87822 6.03692 2.74071 6.18043 2.64426C6.32395 2.54781 6.49553 2.49736 6.67069 2.50011C6.84585 2.50286 7.01563 2.55866 7.15578 2.65956C7.26633 2.73936 7.41594 2.82873 7.59215 2.93645C8.84781 3.5799 9.91953 4.50971 10.713 5.64409C11.5065 6.77846 11.9975 8.08265 12.1428 9.44194C12.5579 8.59586 12.7844 7.6759 12.8077 6.74096C12.8148 6.59671 12.8626 6.45701 12.9459 6.33676C13.0291 6.2165 13.1449 6.1202 13.2807 6.05812C13.4165 5.99604 13.5673 5.97051 13.7171 5.98425C13.8668 5.99799 14.0099 6.05048 14.131 6.13613C15.4908 7.09763 17.9859 10.9883 15.8091 14.4673C15.1845 15.4123 14.3173 16.1872 13.2906 16.7175C12.264 17.2479 11.1125 17.5157 9.94686 17.4954Z" fill="#FF5A1F"/>
</svg>
