<svg width="80" height="80" viewBox="0 0 80 80" fill="none" xmlns="http://www.w3.org/2000/svg">
<rect width="80" height="80" rx="40" fill="#D1D5DB"/>
<path d="M53.834 25.5H27.1673C26.2833 25.5 25.4354 25.8512 24.8103 26.4763C24.1852 27.1014 23.834 27.9493 23.834 28.8333V52.1667C23.834 53.0507 24.1852 53.8986 24.8103 54.5237C25.4354 55.1488 26.2833 55.5 27.1673 55.5H53.834C54.718 55.5 55.5659 55.1488 56.191 54.5237C56.8161 53.8986 57.1673 53.0507 57.1673 52.1667V28.8333C57.1673 27.9493 56.8161 27.1014 56.191 26.4763C55.5659 25.8512 54.718 25.5 53.834 25.5ZM27.1673 52.1667V28.8333H53.834V52.1667H27.1673Z" fill="#9CA3AF"/>
<path d="M47.6673 41.2733C47.5263 41.0504 47.3344 40.8642 47.1075 40.7299C46.8805 40.5956 46.6248 40.517 46.3616 40.5008C46.0983 40.4845 45.835 40.5309 45.5932 40.6363C45.3514 40.7416 45.138 40.9028 44.9707 41.1067L42.394 44.2517L37.774 36.3333C37.6281 36.067 37.4099 35.8474 37.1444 35.6999C36.879 35.5524 36.5772 35.4831 36.274 35.5C35.9736 35.5094 35.6813 35.5999 35.4281 35.7618C35.1749 35.9238 34.9702 36.1512 34.8357 36.42L29.0023 48.0867C28.8747 48.3414 28.8145 48.6246 28.8274 48.9092C28.8404 49.1938 28.9261 49.4704 29.0764 49.7125C29.2267 49.9545 29.4365 50.154 29.6859 50.2919C29.9352 50.4298 30.2157 50.5014 30.5007 50.5H50.5007C50.7991 50.4999 51.0921 50.4197 51.349 50.2677C51.6059 50.1157 51.8172 49.8975 51.961 49.6359C52.1047 49.3744 52.1756 49.079 52.1661 48.7806C52.1567 48.4823 52.0673 48.192 51.9073 47.94L47.6673 41.2733Z" fill="#9CA3AF"/>
<path d="M44.6673 37.1667C46.048 37.1667 47.1673 36.0474 47.1673 34.6667C47.1673 33.286 46.048 32.1667 44.6673 32.1667C43.2866 32.1667 42.1673 33.286 42.1673 34.6667C42.1673 36.0474 43.2866 37.1667 44.6673 37.1667Z" fill="#9CA3AF"/>
</svg>
