<svg width="41" height="40" viewBox="0 0 41 40" fill="none" xmlns="http://www.w3.org/2000/svg">
<path d="M33.834 5H7.16732C6.28326 5 5.43542 5.35119 4.81029 5.97631C4.18517 6.60143 3.83398 7.44928 3.83398 8.33333V31.6667C3.83398 32.5507 4.18517 33.3986 4.81029 34.0237C5.43542 34.6488 6.28326 35 7.16732 35H33.834C34.718 35 35.5659 34.6488 36.191 34.0237C36.8161 33.3986 37.1673 32.5507 37.1673 31.6667V8.33333C37.1673 7.44928 36.8161 6.60143 36.191 5.97631C35.5659 5.35119 34.718 5 33.834 5ZM7.16732 31.6667V8.33333H33.834V31.6667H7.16732Z" fill="#9CA3AF"/>
<path d="M27.6673 20.7733C27.5263 20.5504 27.3344 20.3642 27.1075 20.2299C26.8805 20.0956 26.6248 20.017 26.3616 20.0008C26.0983 19.9845 25.835 20.0309 25.5932 20.1363C25.3514 20.2416 25.138 20.4028 24.9707 20.6067L22.394 23.7517L17.774 15.8333C17.6281 15.567 17.4099 15.3474 17.1444 15.1999C16.879 15.0524 16.5772 14.9831 16.274 15C15.9736 15.0094 15.6813 15.0999 15.4281 15.2618C15.1749 15.4238 14.9702 15.6512 14.8357 15.92L9.00232 27.5867C8.87467 27.8414 8.81446 28.1246 8.82743 28.4092C8.8404 28.6938 8.92612 28.9704 9.0764 29.2125C9.22669 29.4545 9.43652 29.654 9.68587 29.7919C9.93521 29.9298 10.2157 30.0014 10.5007 30H30.5007C30.7991 29.9999 31.0921 29.9197 31.349 29.7677C31.6059 29.6157 31.8172 29.3975 31.961 29.1359C32.1047 28.8744 32.1756 28.579 32.1661 28.2806C32.1567 27.9823 32.0673 27.692 31.9073 27.44L27.6673 20.7733Z" fill="#9CA3AF"/>
<path d="M24.6673 16.6667C26.048 16.6667 27.1673 15.5474 27.1673 14.1667C27.1673 12.786 26.048 11.6667 24.6673 11.6667C23.2866 11.6667 22.1673 12.786 22.1673 14.1667C22.1673 15.5474 23.2866 16.6667 24.6673 16.6667Z" fill="#9CA3AF"/>
</svg>
