<svg width="33" height="32" viewBox="0 0 33 32" fill="none" xmlns="http://www.w3.org/2000/svg">
<path d="M16.3333 2.66669C13.6962 2.66669 11.1184 3.44867 8.92571 4.91376C6.73305 6.37884 5.02408 8.46123 4.01492 10.8976C3.00575 13.3339 2.7417 16.0148 3.25617 18.6012C3.77064 21.1876 5.04052 23.5634 6.90522 25.4281C8.76992 27.2928 11.1457 28.5627 13.7321 29.0772C16.3185 29.5916 18.9994 29.3276 21.4358 28.3184C23.8721 27.3092 25.9545 25.6003 27.4196 23.4076C28.8847 21.215 29.6666 18.6371 29.6666 16C29.6666 14.2491 29.3218 12.5152 28.6517 10.8976C27.9816 9.2799 26.9995 7.81004 25.7614 6.57193C24.5233 5.33382 23.0534 4.35169 21.4358 3.68163C19.8181 3.01156 18.0843 2.66669 16.3333 2.66669ZM14.052 26.3907C12.5978 26.0585 11.2297 25.4247 10.0361 24.5301C8.84247 23.6356 7.85004 22.5004 7.12303 21.198C6.39603 19.8956 5.95066 18.455 5.81577 16.9695C5.68088 15.484 5.85947 13.9868 6.33998 12.5747L6.67598 12.6014C7.38678 12.9404 8.01593 13.4291 8.52037 14.0338C9.02481 14.6386 9.39263 15.3452 9.59864 16.1054C9.82024 16.9833 10.246 17.7965 10.8412 18.4788C11.4364 19.1611 12.1843 19.6933 13.024 20.032C14.6346 20.7747 14.972 22.8574 14.052 26.3907ZM19.1053 14C19.1052 13.8935 19.0922 13.7874 19.0666 13.684C18.8253 12.5909 18.3469 11.5641 17.6652 10.6761C16.9834 9.7882 16.115 9.0608 15.1213 8.54535C13.9546 7.80535 13.2306 7.34535 13.036 5.89069C15.1118 5.19128 17.3528 5.14886 19.4537 5.76921C21.5545 6.38956 23.413 7.64251 24.776 9.35735C22.8293 9.64935 21.772 12.4974 21.772 13.9987C21.6296 14.2188 21.4308 14.3968 21.1963 14.514C20.9618 14.6313 20.7002 14.6835 20.4386 14.6654C20.1772 14.6837 19.9157 14.6316 19.6812 14.5146C19.4467 14.3976 19.2478 14.2199 19.1053 14ZM21.388 25.2974L20.4453 22.472C20.4908 21.8301 20.7669 21.2263 21.2227 20.7719C21.6785 20.3176 22.2832 20.0435 22.9253 20L25.7773 20.868C24.7915 22.7513 23.2622 24.2945 21.388 25.2974Z" fill="#EFBB00"/>
</svg>
