<svg width="20" height="20" viewBox="0 0 20 20" fill="none" xmlns="http://www.w3.org/2000/svg">
<path d="M7.61918 3.33331H4.04751C3.65309 3.33331 3.33334 3.65306 3.33334 4.04748V7.61915C3.33334 8.01357 3.65309 8.33331 4.04751 8.33331H7.61918C8.0136 8.33331 8.33334 8.01357 8.33334 7.61915V4.04748C8.33334 3.65306 8.0136 3.33331 7.61918 3.33331Z" stroke="#1F2A37" stroke-width="2" stroke-linecap="round" stroke-linejoin="round"/>
<path d="M15.9525 3.33331H12.3808C11.9864 3.33331 11.6667 3.65306 11.6667 4.04748V7.61915C11.6667 8.01357 11.9864 8.33331 12.3808 8.33331H15.9525C16.3469 8.33331 16.6667 8.01357 16.6667 7.61915V4.04748C16.6667 3.65306 16.3469 3.33331 15.9525 3.33331Z" stroke="#1F2A37" stroke-width="2" stroke-linecap="round" stroke-linejoin="round"/>
<path d="M7.61918 11.6666H4.04751C3.65309 11.6666 3.33334 11.9864 3.33334 12.3808V15.9525C3.33334 16.3469 3.65309 16.6666 4.04751 16.6666H7.61918C8.0136 16.6666 8.33334 16.3469 8.33334 15.9525V12.3808C8.33334 11.9864 8.0136 11.6666 7.61918 11.6666Z" stroke="#1F2A37" stroke-width="2" stroke-linecap="round" stroke-linejoin="round"/>
<path d="M15.9525 11.6666H12.3808C11.9864 11.6666 11.6667 11.9864 11.6667 12.3808V15.9525C11.6667 16.3469 11.9864 16.6666 12.3808 16.6666H15.9525C16.3469 16.6666 16.6667 16.3469 16.6667 15.9525V12.3808C16.6667 11.9864 16.3469 11.6666 15.9525 11.6666Z" stroke="#1F2A37" stroke-width="2" stroke-linecap="round" stroke-linejoin="round"/>
</svg>
