<svg width="24" height="24" viewBox="0 0 24 24" fill="none" xmlns="http://www.w3.org/2000/svg">
<path d="M9.824 7.937C10.089 7.937 10.352 7.833 10.55 7.625C11.291 6.844 12.613 6.815 13.385 7.56C13.783 7.944 14.416 7.932 14.799 7.535C15.183 7.137 15.171 6.504 14.774 6.121C14.023 5.397 13.039 5 12 5C10.909 5 9.852 5.455 9.099 6.248C8.719 6.648 8.736 7.281 9.136 7.662C9.329 7.846 9.577 7.937 9.824 7.937Z" fill="#EFBB00"/>
<path d="M19 9C19 5.141 15.859 2 12 2C8.141 2 5 5.141 5 9C3.346 9 2 10.346 2 12V14C2 15.654 3.346 17 5 17H6C6.553 17 7 16.553 7 16V9C7 6.243 9.243 4 12 4C14.757 4 17 6.243 17 9V16.083C17 17.691 15.691 19 14.083 19H14C14 17.897 13.103 17 12 17H11C9.897 17 9 17.897 9 19V20C9 21.103 9.897 22 11 22H12C12.737 22 13.375 21.595 13.722 21H14.083C16.48 21 18.476 19.273 18.907 17H19C20.654 17 22 15.654 22 14V12C22 10.346 20.654 9 19 9ZM5 15C4.448 15 4 14.552 4 14V12C4 11.448 4.448 11 5 11V15ZM12 20H11V19H12V20ZM20 14C20 14.552 19.552 15 19 15V11C19.552 11 20 11.448 20 12V14Z" fill="#EFBB00"/>
</svg>
