<svg width="25" height="24" viewBox="0 0 25 24" fill="none" xmlns="http://www.w3.org/2000/svg">
<path d="M3.84255 7.77789C4.0687 7.23192 4.40017 6.73584 4.81804 6.31798C5.2359 5.90011 5.73198 5.56864 6.27795 5.34249C6.82392 5.11634 7.40909 4.99994 8.00004 4.99994C8.59099 4.99994 9.17616 5.11634 9.72213 5.34249C10.2681 5.56864 10.7642 5.90011 11.182 6.31798L12.5 7.63598L13.818 6.31798C14.662 5.47406 15.8066 4.99995 17 4.99995C18.1935 4.99995 19.3381 5.47406 20.182 6.31798C21.026 7.1619 21.5001 8.3065 21.5001 9.49998C21.5001 10.6935 21.026 11.8381 20.182 12.682L12.5 20.364L4.81804 12.682C4.40017 12.2641 4.0687 11.768 3.84255 11.2221C3.6164 10.6761 3.5 10.0909 3.5 9.49998C3.5 8.90903 3.6164 8.32386 3.84255 7.77789Z" stroke="#6B7280" stroke-width="2" stroke-linecap="round" stroke-linejoin="round"/>
</svg>
