<svg width="20" height="20" viewBox="0 0 20 20" fill="none" xmlns="http://www.w3.org/2000/svg">
<path d="M2.78546 6.48159C2.97391 6.02661 3.25014 5.61321 3.59837 5.26499C3.94659 4.91677 4.35998 4.64054 4.81496 4.45208C5.26993 4.26362 5.75757 4.16663 6.25003 4.16663C6.74249 4.16663 7.23013 4.26362 7.68511 4.45208C8.14008 4.64054 8.55348 4.91677 8.9017 5.26499L10 6.36333L11.0984 5.26499C11.8016 4.56173 12.7555 4.16664 13.75 4.16664C14.7446 4.16664 15.6984 4.56173 16.4017 5.26499C17.105 5.96826 17.5001 6.92209 17.5001 7.91666C17.5001 8.91123 17.105 9.86506 16.4017 10.5683L10 16.97L3.59837 10.5683C3.25014 10.2201 2.97391 9.80671 2.78546 9.35173C2.597 8.89676 2.5 8.40912 2.5 7.91666C2.5 7.4242 2.597 6.93656 2.78546 6.48159Z" fill="white"/>
</svg>
