<svg width="25" height="24" viewBox="0 0 25 24" fill="none" xmlns="http://www.w3.org/2000/svg">
<path d="M21.247 11.3636L19.4448 9.56358L13.1371 3.26351C12.9681 3.09478 12.7389 3 12.5 3C12.2611 3 12.0319 3.09478 11.8629 3.26351L5.55517 9.56358L3.75295 11.3636C3.58881 11.5333 3.49798 11.7607 3.50003 11.9967C3.50209 12.2326 3.59686 12.4584 3.76393 12.6252C3.931 12.7921 4.15701 12.8868 4.39328 12.8888C4.62954 12.8909 4.85717 12.8002 5.02712 12.6362L5.29114 12.3725V19.2C5.29114 19.6774 5.48102 20.1352 5.819 20.4728C6.15698 20.8104 6.61538 21 7.09336 21H10.6978C10.9368 21 11.166 20.9052 11.335 20.7364C11.504 20.5676 11.5989 20.3387 11.5989 20.1V15.5999H13.4011V20.1C13.4011 20.3387 13.496 20.5676 13.665 20.7364C13.834 20.9052 14.0632 21 14.3022 21H17.9066C18.3846 21 18.843 20.8104 19.181 20.4728C19.519 20.1352 19.7089 19.6774 19.7089 19.2V12.3725L19.9729 12.6362C20.1428 12.8002 20.3705 12.8909 20.6067 12.8888C20.843 12.8868 21.069 12.7921 21.2361 12.6252C21.4031 12.4584 21.4979 12.2326 21.5 11.9967C21.502 11.7607 21.4112 11.5333 21.247 11.3636ZM17.9066 19.2H15.2033V15.5999C15.2033 15.1225 15.0134 14.6647 14.6755 14.3271C14.3375 13.9896 13.8791 13.7999 13.4011 13.7999H11.5989C11.1209 13.7999 10.6625 13.9896 10.3245 14.3271C9.98655 14.6647 9.79668 15.1225 9.79668 15.5999V19.2H7.09336V10.5725L12.5 5.17243L17.9066 10.5725V19.2Z" fill="#6B7280"/>
</svg>
