<svg width="20" height="21" viewBox="0 0 20 21" fill="none" xmlns="http://www.w3.org/2000/svg">
<path d="M9.99984 2.1665C8.35166 2.1665 6.7405 2.65525 5.37009 3.57092C3.99968 4.4866 2.93157 5.78809 2.30084 7.31081C1.67011 8.83352 1.50509 10.5091 1.82663 12.1256C2.14817 13.7421 2.94185 15.227 4.10728 16.3924C5.27272 17.5578 6.75758 18.3515 8.37409 18.673C9.9906 18.9946 11.6662 18.8296 13.1889 18.1988C14.7116 17.5681 16.0131 16.5 16.9288 15.1296C17.8444 13.7592 18.3332 12.148 18.3332 10.4998C18.3307 8.29044 17.452 6.17224 15.8897 4.60996C14.3274 3.04768 12.2092 2.16893 9.99984 2.1665ZM9.58317 5.49984C9.8304 5.49984 10.0721 5.57315 10.2776 5.7105C10.4832 5.84785 10.6434 6.04307 10.738 6.27148C10.8326 6.49989 10.8574 6.75122 10.8092 6.9937C10.7609 7.23617 10.6419 7.4589 10.4671 7.63372C10.2922 7.80853 10.0695 7.92759 9.82704 7.97582C9.58456 8.02405 9.33323 7.99929 9.10482 7.90469C8.87641 7.81008 8.68119 7.64986 8.54384 7.4443C8.40648 7.23874 8.33317 6.99706 8.33317 6.74984C8.33317 6.41832 8.46487 6.10037 8.69929 5.86595C8.93371 5.63153 9.25165 5.49984 9.58317 5.49984ZM11.6665 14.6665H8.33317C8.11216 14.6665 7.9002 14.5787 7.74392 14.4224C7.58764 14.2661 7.49984 14.0542 7.49984 13.8332C7.49984 13.6122 7.58764 13.4002 7.74392 13.2439C7.9002 13.0876 8.11216 12.9998 8.33317 12.9998H9.16651V10.4998H8.33317C8.11216 10.4998 7.9002 10.412 7.74392 10.2558C7.58764 10.0995 7.49984 9.88752 7.49984 9.6665C7.49984 9.44549 7.58764 9.23353 7.74392 9.07725C7.9002 8.92097 8.11216 8.83317 8.33317 8.83317H9.99984C10.2209 8.83317 10.4328 8.92097 10.5891 9.07725C10.7454 9.23353 10.8332 9.44549 10.8332 9.6665V12.9998H11.6665C11.8875 12.9998 12.0995 13.0876 12.2558 13.2439C12.412 13.4002 12.4998 13.6122 12.4998 13.8332C12.4998 14.0542 12.412 14.2661 12.2558 14.4224C12.0995 14.5787 11.8875 14.6665 11.6665 14.6665Z" fill="#1A56DB"/>
</svg>
