<svg width="20" height="20" viewBox="0 0 20 20" fill="none" xmlns="http://www.w3.org/2000/svg">
<path d="M9.99935 1.66675C8.35117 1.66675 6.74001 2.15549 5.3696 3.07117C3.99919 3.98685 2.93109 5.28833 2.30036 6.81105C1.66963 8.33377 1.5046 10.0093 1.82614 11.6258C2.14769 13.2423 2.94136 14.7272 4.1068 15.8926C5.27223 17.0581 6.75709 17.8517 8.3736 18.1733C9.99011 18.4948 11.6657 18.3298 13.1884 17.6991C14.7111 17.0683 16.0126 16.0002 16.9283 14.6298C17.8439 13.2594 18.3327 11.6483 18.3327 10.0001C18.3303 7.79069 17.4515 5.67248 15.8892 4.1102C14.3269 2.54793 12.2087 1.66917 9.99935 1.66675ZM9.58268 5.00008C9.82991 5.00008 10.0716 5.07339 10.2771 5.21074C10.4827 5.3481 10.6429 5.54332 10.7375 5.77173C10.8321 6.00013 10.8569 6.25147 10.8087 6.49394C10.7604 6.73642 10.6414 6.95915 10.4666 7.13396C10.2918 7.30878 10.069 7.42783 9.82655 7.47606C9.58407 7.52429 9.33274 7.49954 9.10433 7.40493C8.87592 7.31032 8.6807 7.1501 8.54335 6.94454C8.406 6.73898 8.33269 6.49731 8.33269 6.25008C8.33269 5.91856 8.46438 5.60062 8.6988 5.3662C8.93322 5.13178 9.25116 5.00008 9.58268 5.00008ZM11.666 14.1667H8.33269C8.11167 14.1667 7.89971 14.0789 7.74343 13.9227C7.58715 13.7664 7.49935 13.5544 7.49935 13.3334C7.49935 13.1124 7.58715 12.9004 7.74343 12.7442C7.89971 12.5879 8.11167 12.5001 8.33269 12.5001H9.16602V10.0001H8.33269C8.11167 10.0001 7.89971 9.91228 7.74343 9.756C7.58715 9.59972 7.49935 9.38776 7.49935 9.16675C7.49935 8.94573 7.58715 8.73377 7.74343 8.57749C7.89971 8.42121 8.11167 8.33341 8.33269 8.33341H9.99935C10.2204 8.33341 10.4323 8.42121 10.5886 8.57749C10.7449 8.73377 10.8327 8.94573 10.8327 9.16675V12.5001H11.666C11.887 12.5001 12.099 12.5879 12.2553 12.7442C12.4116 12.9004 12.4994 13.1124 12.4994 13.3334C12.4994 13.5544 12.4116 13.7664 12.2553 13.9227C12.099 14.0789 11.887 14.1667 11.666 14.1667Z" fill="#1A56DB"/>
</svg>
