<svg width="20" height="20" viewBox="0 0 20 20" fill="none" xmlns="http://www.w3.org/2000/svg">
<path d="M3.22916 5H2.18749C1.89984 5 1.66666 5.22386 1.66666 5.5V6.5C1.66666 6.77614 1.89984 7 2.18749 7H3.22916C3.5168 7 3.74999 6.77614 3.74999 6.5V5.5C3.74999 5.22386 3.5168 5 3.22916 5Z" fill="#1F2A37"/>
<path d="M3.22916 9H2.18749C1.89984 9 1.66666 9.22386 1.66666 9.5V10.5C1.66666 10.7761 1.89984 11 2.18749 11H3.22916C3.5168 11 3.74999 10.7761 3.74999 10.5V9.5C3.74999 9.22386 3.5168 9 3.22916 9Z" fill="#1F2A37"/>
<path d="M3.22916 13H2.18749C1.89984 13 1.66666 13.2239 1.66666 13.5V14.5C1.66666 14.7761 1.89984 15 2.18749 15H3.22916C3.5168 15 3.74999 14.7761 3.74999 14.5V13.5C3.74999 13.2239 3.5168 13 3.22916 13Z" fill="#1F2A37"/>
<path d="M17.2917 7H6.87499C6.59872 7 6.33377 6.89464 6.13842 6.70711C5.94307 6.51957 5.83332 6.26522 5.83332 6C5.83332 5.73478 5.94307 5.48043 6.13842 5.29289C6.33377 5.10536 6.59872 5 6.87499 5H17.2917C17.5679 5 17.8329 5.10536 18.0282 5.29289C18.2236 5.48043 18.3333 5.73478 18.3333 6C18.3333 6.26522 18.2236 6.51957 18.0282 6.70711C17.8329 6.89464 17.5679 7 17.2917 7Z" fill="#1F2A37"/>
<path d="M17.2917 11H6.87499C6.59872 11 6.33377 10.8946 6.13842 10.7071C5.94307 10.5196 5.83332 10.2652 5.83332 10C5.83332 9.73478 5.94307 9.48043 6.13842 9.29289C6.33377 9.10536 6.59872 9 6.87499 9H17.2917C17.5679 9 17.8329 9.10536 18.0282 9.29289C18.2236 9.48043 18.3333 9.73478 18.3333 10C18.3333 10.2652 18.2236 10.5196 18.0282 10.7071C17.8329 10.8946 17.5679 11 17.2917 11Z" fill="#1F2A37"/>
<path d="M17.2917 15H6.87499C6.59872 15 6.33377 14.8946 6.13842 14.7071C5.94307 14.5196 5.83332 14.2652 5.83332 14C5.83332 13.7348 5.94307 13.4804 6.13842 13.2929C6.33377 13.1054 6.59872 13 6.87499 13H17.2917C17.5679 13 17.8329 13.1054 18.0282 13.2929C18.2236 13.4804 18.3333 13.7348 18.3333 14C18.3333 14.2652 18.2236 14.5196 18.0282 14.7071C17.8329 14.8946 17.5679 15 17.2917 15Z" fill="#1F2A37"/>
</svg>
