<svg width="24" height="24" viewBox="0 0 24 24" fill="none" xmlns="http://www.w3.org/2000/svg">
<path d="M21.9 10.6844C21.9 10.6753 21.9 10.6651 21.894 10.657L19.894 6.59352C19.811 6.42481 19.6834 6.28289 19.5255 6.18367C19.3676 6.08445 19.1857 6.03185 19 6.03175H15C15 5.49289 14.7893 4.97611 14.4142 4.59508C14.0391 4.21406 13.5304 4 13 4H4C3.46957 4 2.96086 4.21406 2.58579 4.59508C2.21071 4.97611 2 5.49289 2 6.03175V15.1746C2 15.444 2.10536 15.7024 2.29289 15.8929C2.48043 16.0834 2.73478 16.1905 3 16.1905H3.3C3.26981 16.3582 3.25275 16.528 3.249 16.6984C3.249 17.574 3.59141 18.4138 4.2009 19.033C4.8104 19.6522 5.63705 20 6.499 20C7.36095 20 8.1876 19.6522 8.7971 19.033C9.40659 18.4138 9.749 17.574 9.749 16.6984C9.74591 16.5281 9.72952 16.3582 9.7 16.1905H14.3C14.2698 16.3582 14.2528 16.528 14.249 16.6984C14.249 17.574 14.5914 18.4138 15.2009 19.033C15.8104 19.6522 16.637 20 17.499 20C18.361 20 19.1876 19.6522 19.7971 19.033C20.4066 18.4138 20.749 17.574 20.749 16.6984C20.7459 16.5281 20.7295 16.3582 20.7 16.1905H21C21.2652 16.1905 21.5196 16.0834 21.7071 15.8929C21.8946 15.7024 22 15.444 22 15.1746V11.1111C21.998 10.9631 21.9638 10.8175 21.9 10.6844ZM17.5 13.3968C16.7499 13.4004 16.0245 13.6699 15.449 14.1587H15V12.127H20V14.1587H19.551C18.9755 13.6699 18.2501 13.4004 17.5 13.3968ZM18.382 8.06349L19.382 10.0952H15V8.06349H18.382ZM4 6.03175H13V14.1587H8.551C7.97751 13.6672 7.25135 13.3976 6.501 13.3976C5.75065 13.3976 5.02449 13.6672 4.451 14.1587H4V6.03175ZM6.5 17.9683C6.25277 17.9683 6.0111 17.8938 5.80554 17.7542C5.59998 17.6147 5.43976 17.4164 5.34515 17.1844C5.25054 16.9523 5.22579 16.697 5.27402 16.4507C5.32225 16.2044 5.4413 15.9781 5.61612 15.8005C5.79093 15.6229 6.01366 15.502 6.25614 15.453C6.49861 15.404 6.74995 15.4291 6.97835 15.5252C7.20676 15.6213 7.40199 15.7841 7.53934 15.9929C7.67669 16.2018 7.75 16.4473 7.75 16.6984C7.74947 17.035 7.61761 17.3577 7.3833 17.5957C7.14899 17.8338 6.83136 17.9677 6.5 17.9683ZM17.5 17.9683C17.2528 17.9683 17.0111 17.8938 16.8055 17.7542C16.6 17.6147 16.4398 17.4164 16.3451 17.1844C16.2505 16.9523 16.2258 16.697 16.274 16.4507C16.3223 16.2044 16.4413 15.9781 16.6161 15.8005C16.7909 15.6229 17.0137 15.502 17.2561 15.453C17.4986 15.404 17.7499 15.4291 17.9784 15.5252C18.2068 15.6213 18.402 15.7841 18.5393 15.9929C18.6767 16.2018 18.75 16.4473 18.75 16.6984C18.7495 17.035 18.6176 17.3577 18.3833 17.5957C18.149 17.8338 17.8314 17.9677 17.5 17.9683Z" fill="#EFBB00"/>
</svg>
