<svg width="24" height="21" viewBox="0 0 24 21" fill="none" xmlns="http://www.w3.org/2000/svg">
<path d="M16.4636 3.18261H24V0.500096H16.4636C15.3529 0.495041 14.2633 0.80088 13.3201 1.38243C12.377 1.96399 11.6186 2.79764 11.1322 3.78748C10.9185 4.21921 10.7578 4.67478 10.6536 5.14444C10.6529 5.14789 10.6529 5.15145 10.6536 5.1549C10.6416 5.20374 10.6318 5.25048 10.6233 5.29932C10.6149 5.34816 10.6079 5.38653 10.5994 5.43048C10.5945 5.4542 10.591 5.47792 10.5874 5.50024C10.5825 5.53722 10.5776 5.5742 10.572 5.61117C10.5663 5.64815 10.56 5.70536 10.5537 5.75071C10.5473 5.79605 10.5431 5.84838 10.5403 5.89512C10.5375 5.94187 10.5333 5.96489 10.5311 6.00326C10.5311 6.02838 10.5311 6.05489 10.5262 6.08C10.5262 6.12884 10.5262 6.17768 10.5213 6.2286C10.5164 6.27953 10.5178 6.33744 10.5178 6.39325C10.5178 6.47697 10.5178 6.5593 10.5227 6.64162C10.5227 6.68418 10.5283 6.72604 10.5297 6.7679C10.5311 6.80976 10.5368 6.86208 10.5417 6.90743C10.5466 6.95278 10.5487 6.9772 10.5516 7.01697C10.5544 7.05673 10.5621 7.09789 10.567 7.13626C10.5741 7.1865 10.5804 7.23533 10.5874 7.28277C10.5924 7.31487 10.5973 7.34487 10.6029 7.37696L10.6177 7.46417C10.6248 7.49626 10.6318 7.52975 10.6381 7.56184C10.6522 7.62742 10.6656 7.69091 10.6825 7.75649C10.6895 7.7837 10.6958 7.8109 10.7029 7.83951C10.7099 7.86811 10.7184 7.89602 10.7247 7.92323C10.731 7.95044 10.7416 7.98393 10.75 8.01253C10.7585 8.04113 10.7641 8.05927 10.7704 8.0823C10.7873 8.13462 10.8028 8.18485 10.8218 8.23508L10.8619 8.35438C11.074 8.93831 11.3768 9.48583 11.7593 9.97715L19.9411 20.5H24V6.34512H16.1293L18.2161 9.02903H21.2945V17.8433L18.8382 14.6822L18.663 14.4603L13.9052 8.34183C13.5364 7.868 13.3089 7.30119 13.2485 6.70571C13.1882 6.11022 13.2974 5.50988 13.5637 4.97279C13.8301 4.4357 14.243 3.98335 14.7555 3.66705C15.2681 3.35076 15.8598 3.18317 16.4636 3.18331V3.18261Z" fill="#755E5E"/>
<path d="M16.4636 3.18261H24V0.500096H16.4636C15.3529 0.495041 14.2633 0.80088 13.3201 1.38243C12.377 1.96399 11.6186 2.79764 11.1322 3.78748C10.9185 4.21921 10.7578 4.67478 10.6536 5.14444C10.6529 5.14789 10.6529 5.15145 10.6536 5.1549C10.6416 5.20374 10.6318 5.25048 10.6233 5.29932C10.6149 5.34816 10.6079 5.38653 10.5994 5.43048C10.5945 5.4542 10.591 5.47792 10.5874 5.50024C10.5825 5.53722 10.5776 5.5742 10.572 5.61117C10.5663 5.64815 10.56 5.70536 10.5537 5.75071C10.5473 5.79605 10.5431 5.84838 10.5403 5.89512C10.5375 5.94187 10.5333 5.96489 10.5311 6.00326C10.5311 6.02838 10.5311 6.05489 10.5262 6.08C10.5262 6.12884 10.5262 6.17768 10.5213 6.2286C10.5164 6.27953 10.5178 6.33744 10.5178 6.39325C10.5178 6.47697 10.5178 6.5593 10.5227 6.64162C10.5227 6.68418 10.5283 6.72604 10.5297 6.7679C10.5311 6.80976 10.5368 6.86208 10.5417 6.90743C10.5466 6.95278 10.5487 6.9772 10.5516 7.01697C10.5544 7.05673 10.5621 7.09789 10.567 7.13626C10.5741 7.1865 10.5804 7.23533 10.5874 7.28277C10.5924 7.31487 10.5973 7.34487 10.6029 7.37696L10.6177 7.46417C10.6248 7.49626 10.6318 7.52975 10.6381 7.56184C10.6522 7.62742 10.6656 7.69091 10.6825 7.75649C10.6895 7.7837 10.6958 7.8109 10.7029 7.83951C10.7099 7.86811 10.7184 7.89602 10.7247 7.92323C10.731 7.95044 10.7416 7.98393 10.75 8.01253C10.7585 8.04113 10.7641 8.05927 10.7704 8.0823C10.7873 8.13462 10.8028 8.18485 10.8218 8.23508L10.8619 8.35438C11.074 8.93831 11.3768 9.48583 11.7593 9.97715L19.9411 20.5H24V6.34512H16.1293L18.2161 9.02903H21.2945V17.8433L18.8382 14.6822L18.663 14.4603L13.9052 8.34183C13.5364 7.868 13.3089 7.30119 13.2485 6.70571C13.1882 6.11022 13.2974 5.50988 13.5637 4.97279C13.8301 4.4357 14.243 3.98335 14.7555 3.66705C15.2681 3.35076 15.8598 3.18317 16.4636 3.18331V3.18261Z" fill="#111928"/>
<path d="M8.23249 8.35437C8.21912 8.3146 8.20574 8.27414 8.19167 8.23507C8.17337 8.18484 8.15789 8.13461 8.141 8.08228L8.12059 8.01251C8.11214 7.98391 8.10369 7.95321 8.09525 7.92321C8.0868 7.89321 8.07976 7.8674 8.07343 7.83949C8.06709 7.81159 8.05935 7.78368 8.05302 7.75647C8.03613 7.69089 8.02205 7.62741 8.00868 7.56182C8.00164 7.52973 7.99531 7.49624 7.98827 7.46415C7.98123 7.43206 7.97841 7.40555 7.97278 7.37694L7.95801 7.28276C7.95097 7.23532 7.94463 7.18648 7.93759 7.13625C7.93267 7.09788 7.92704 7.05742 7.92211 7.01695C7.91718 6.97649 7.91578 6.94718 7.91226 6.90742C7.90874 6.86765 7.90381 6.81533 7.90029 6.76788C7.89677 6.72044 7.89677 6.68417 7.89325 6.64161C7.88973 6.55928 7.88833 6.47696 7.88833 6.39324C7.88833 6.33743 7.88833 6.28231 7.89185 6.22859C7.89537 6.17487 7.89185 6.12882 7.89677 6.07999C7.89677 6.05487 7.90029 6.02836 7.9017 6.00325C7.9017 5.96767 7.90662 5.93348 7.91014 5.89511C7.91366 5.85674 7.91859 5.79953 7.92422 5.75069C7.92985 5.70185 7.93548 5.6579 7.94252 5.61116C7.94956 5.56441 7.95308 5.53721 7.95801 5.50023C7.96152 5.4786 7.96434 5.45488 7.96997 5.43046C7.97842 5.38651 7.98475 5.34326 7.9932 5.2993C8.00164 5.25535 8.0122 5.20372 8.02416 5.15489C8.02348 5.15143 8.02348 5.14788 8.02416 5.14442C8.12807 4.67467 8.28876 4.21906 8.50276 3.78747C8.98888 2.79816 9.74672 1.96487 10.6892 1.38335C11.6316 0.801833 12.7205 0.495684 13.8306 0.500081H11.2026C10.0925 0.495849 9.00371 0.802067 8.06128 1.38357C7.11885 1.96506 6.36098 2.79826 5.87472 3.78747C5.66072 4.21906 5.50003 4.67467 5.39613 5.14442C5.39545 5.14788 5.39545 5.15143 5.39613 5.15489C5.38416 5.20372 5.37361 5.25047 5.36516 5.2993C5.35671 5.34814 5.34968 5.38651 5.34123 5.43046C5.3363 5.45418 5.33279 5.4779 5.32997 5.50023C5.32434 5.53721 5.31941 5.57418 5.31449 5.61116C5.30956 5.64813 5.30252 5.70534 5.2976 5.75069C5.29267 5.79604 5.28704 5.84836 5.28211 5.89511C5.27718 5.94185 5.27718 5.96487 5.27367 6.00325C5.27367 6.02836 5.27015 6.05487 5.27015 6.07999C5.26663 6.12882 5.26522 6.17766 5.26381 6.22859C5.2624 6.27952 5.26029 6.33743 5.26029 6.39324C5.26029 6.47696 5.26381 6.55928 5.26663 6.64161C5.26663 6.68417 5.27015 6.72602 5.27367 6.76788C5.27718 6.80974 5.2807 6.86207 5.28352 6.90742L5.29056 7.01625C5.29548 7.05672 5.30041 7.09718 5.30604 7.13555C5.31237 7.18578 5.31941 7.23462 5.32645 7.28206C5.33138 7.31415 5.3363 7.34415 5.34123 7.37625C5.34616 7.40834 5.35179 7.43485 5.35671 7.46345C5.36164 7.49206 5.37009 7.52903 5.37713 7.56113C5.3905 7.62671 5.40387 7.69019 5.42146 7.75577C5.4278 7.78298 5.43484 7.81019 5.44117 7.8388C5.44751 7.8674 5.45666 7.89531 5.46369 7.92252C5.47073 7.94972 5.48059 7.98321 5.48903 8.01182C5.49748 8.04042 5.50452 8.05856 5.51085 8.08158C5.52633 8.13391 5.54182 8.18414 5.56012 8.23437L5.60094 8.35367C5.81273 8.93773 6.11552 9.48529 6.4983 9.97644L14.6787 20.5H17.3096L9.12985 9.97713C8.74707 9.48599 8.44428 8.93843 8.23249 8.35437Z" fill="#755E5E"/>
<path d="M8.23249 8.35437C8.21912 8.3146 8.20574 8.27414 8.19167 8.23507C8.17337 8.18484 8.15789 8.13461 8.141 8.08228L8.12059 8.01251C8.11214 7.98391 8.10369 7.95321 8.09525 7.92321C8.0868 7.89321 8.07976 7.8674 8.07343 7.83949C8.06709 7.81159 8.05935 7.78368 8.05302 7.75647C8.03613 7.69089 8.02205 7.62741 8.00868 7.56182C8.00164 7.52973 7.99531 7.49624 7.98827 7.46415C7.98123 7.43206 7.97841 7.40555 7.97278 7.37694L7.95801 7.28276C7.95097 7.23532 7.94463 7.18648 7.93759 7.13625C7.93267 7.09788 7.92704 7.05742 7.92211 7.01695C7.91718 6.97649 7.91578 6.94718 7.91226 6.90742C7.90874 6.86765 7.90381 6.81533 7.90029 6.76788C7.89677 6.72044 7.89677 6.68417 7.89325 6.64161C7.88973 6.55928 7.88833 6.47696 7.88833 6.39324C7.88833 6.33743 7.88833 6.28231 7.89185 6.22859C7.89537 6.17487 7.89185 6.12882 7.89677 6.07999C7.89677 6.05487 7.90029 6.02836 7.9017 6.00325C7.9017 5.96767 7.90662 5.93348 7.91014 5.89511C7.91366 5.85674 7.91859 5.79953 7.92422 5.75069C7.92985 5.70185 7.93548 5.6579 7.94252 5.61116C7.94956 5.56441 7.95308 5.53721 7.95801 5.50023C7.96152 5.4786 7.96434 5.45488 7.96997 5.43046C7.97842 5.38651 7.98475 5.34326 7.9932 5.2993C8.00164 5.25535 8.0122 5.20372 8.02416 5.15489C8.02348 5.15143 8.02348 5.14788 8.02416 5.14442C8.12807 4.67467 8.28876 4.21906 8.50276 3.78747C8.98888 2.79816 9.74672 1.96487 10.6892 1.38335C11.6316 0.801833 12.7205 0.495684 13.8306 0.500081H11.2026C10.0925 0.495849 9.00371 0.802067 8.06128 1.38357C7.11885 1.96506 6.36098 2.79826 5.87472 3.78747C5.66072 4.21906 5.50003 4.67467 5.39613 5.14442C5.39545 5.14788 5.39545 5.15143 5.39613 5.15489C5.38416 5.20372 5.37361 5.25047 5.36516 5.2993C5.35671 5.34814 5.34968 5.38651 5.34123 5.43046C5.3363 5.45418 5.33279 5.4779 5.32997 5.50023C5.32434 5.53721 5.31941 5.57418 5.31449 5.61116C5.30956 5.64813 5.30252 5.70534 5.2976 5.75069C5.29267 5.79604 5.28704 5.84836 5.28211 5.89511C5.27718 5.94185 5.27718 5.96487 5.27367 6.00325C5.27367 6.02836 5.27015 6.05487 5.27015 6.07999C5.26663 6.12882 5.26522 6.17766 5.26381 6.22859C5.2624 6.27952 5.26029 6.33743 5.26029 6.39324C5.26029 6.47696 5.26381 6.55928 5.26663 6.64161C5.26663 6.68417 5.27015 6.72602 5.27367 6.76788C5.27718 6.80974 5.2807 6.86207 5.28352 6.90742L5.29056 7.01625C5.29548 7.05672 5.30041 7.09718 5.30604 7.13555C5.31237 7.18578 5.31941 7.23462 5.32645 7.28206C5.33138 7.31415 5.3363 7.34415 5.34123 7.37625C5.34616 7.40834 5.35179 7.43485 5.35671 7.46345C5.36164 7.49206 5.37009 7.52903 5.37713 7.56113C5.3905 7.62671 5.40387 7.69019 5.42146 7.75577C5.4278 7.78298 5.43484 7.81019 5.44117 7.8388C5.44751 7.8674 5.45666 7.89531 5.46369 7.92252C5.47073 7.94972 5.48059 7.98321 5.48903 8.01182C5.49748 8.04042 5.50452 8.05856 5.51085 8.08158C5.52633 8.13391 5.54182 8.18414 5.56012 8.23437L5.60094 8.35367C5.81273 8.93773 6.11552 9.48529 6.4983 9.97644L14.6787 20.5H17.3096L9.12985 9.97713C8.74707 9.48599 8.44428 8.93843 8.23249 8.35437Z" fill="#111928"/>
<path d="M2.96798 8.35437C2.9539 8.3146 2.94053 8.27414 2.92716 8.23507C2.90815 8.18484 2.89337 8.1346 2.87648 8.08228C2.86944 8.05856 2.86241 8.03554 2.85607 8.01251C2.84974 7.98949 2.83918 7.95321 2.83073 7.92321C2.82229 7.89321 2.81525 7.8674 2.80821 7.83949C2.80117 7.81159 2.79484 7.78368 2.7878 7.75647C2.77091 7.69089 2.75754 7.6274 2.74416 7.56182C2.73713 7.52973 2.73009 7.49624 2.72375 7.46415C2.71742 7.43206 2.7132 7.40555 2.70827 7.37694C2.70334 7.34834 2.69842 7.31485 2.69279 7.28276C2.68645 7.23532 2.67941 7.18648 2.67237 7.13625C2.66745 7.09788 2.66252 7.05741 2.6576 7.01695L2.64704 6.90742C2.64211 6.86207 2.63859 6.81532 2.63507 6.76788C2.63155 6.72044 2.63507 6.68416 2.62874 6.64161C2.62522 6.55928 2.62381 6.47696 2.62381 6.39324C2.62381 6.33742 2.62381 6.28231 2.62381 6.22859C2.62381 6.17487 2.62733 6.12882 2.62944 6.07999C2.62944 6.05487 2.62944 6.02836 2.63437 6.00324C2.63437 5.96766 2.6393 5.93348 2.64282 5.89511C2.64633 5.85673 2.65126 5.79953 2.65619 5.75069C2.66111 5.70185 2.66815 5.6579 2.67519 5.61116L2.68997 5.50023C2.69349 5.4786 2.69701 5.45488 2.70194 5.43046C2.71038 5.38651 2.71742 5.34326 2.72587 5.2993C2.73431 5.25535 2.74416 5.20372 2.75613 5.15489C2.75513 5.15147 2.75513 5.14784 2.75613 5.14442C2.85978 4.6747 3.02024 4.21908 3.23402 3.78747C3.72097 2.79702 4.48017 1.96302 5.42422 1.38144C6.36828 0.79986 7.45882 0.494351 8.57032 0.500079H5.93947C4.8293 0.495881 3.74044 0.802104 2.7979 1.38359C1.85536 1.96508 1.09736 2.79826 0.610911 3.78747C0.397222 4.21919 0.236542 4.67476 0.132317 5.14442C0.131634 5.14788 0.131634 5.15143 0.132317 5.15489C0.120352 5.20372 0.110499 5.25047 0.102054 5.2993C0.0936079 5.34814 0.08657 5.38651 0.0781243 5.43046C0.0731976 5.45418 0.0696776 5.4779 0.0661585 5.50023C0.0612318 5.5372 0.0563051 5.57418 0.0506746 5.61116C0.0450441 5.64813 0.0394142 5.70534 0.0337838 5.75069C0.0281533 5.79604 0.023931 5.84836 0.0190043 5.89511C0.0140776 5.94185 0.0133741 5.96487 0.0105589 6.00324C0.0105589 6.02836 0.0105589 6.05487 0.0105589 6.07999C0.00703984 6.12882 0.00492797 6.17766 0.00352035 6.22859C0.00211273 6.27952 0 6.33742 0 6.39324C0 6.47696 0.00351949 6.55928 0.00703855 6.64161C0.00703855 6.68416 0.010558 6.72602 0.0140771 6.76788C0.0175962 6.80974 0.0204124 6.86207 0.0239315 6.90742C0.0274506 6.95276 0.0309685 6.97718 0.0337838 7.01695C0.036599 7.05672 0.044341 7.09788 0.0492677 7.13625C0.0563058 7.18648 0.0626407 7.23532 0.0696789 7.28276C0.0746055 7.31485 0.0802361 7.34485 0.0851628 7.37694L0.0999423 7.46415C0.10698 7.49624 0.114019 7.52973 0.120353 7.56182C0.13443 7.6274 0.147802 7.69089 0.164694 7.75647C0.171732 7.78368 0.178065 7.81089 0.185103 7.83949C0.192141 7.8681 0.200587 7.896 0.206921 7.92321C0.213255 7.95042 0.223814 7.98391 0.232259 8.01251C0.240705 8.04112 0.247744 8.05926 0.254782 8.08228C0.269562 8.1346 0.285044 8.18484 0.304047 8.23507C0.31742 8.27414 0.330793 8.3146 0.34487 8.35437C0.556382 8.93855 0.859196 9.48615 1.24223 9.97713L9.41701 20.5H12.0472L3.86815 9.97713C3.48413 9.48633 3.18036 8.93872 2.96798 8.35437Z" fill="#755E5E"/>
<path d="M2.96798 8.35437C2.9539 8.3146 2.94053 8.27414 2.92716 8.23507C2.90815 8.18484 2.89337 8.1346 2.87648 8.08228C2.86944 8.05856 2.86241 8.03554 2.85607 8.01251C2.84974 7.98949 2.83918 7.95321 2.83073 7.92321C2.82229 7.89321 2.81525 7.8674 2.80821 7.83949C2.80117 7.81159 2.79484 7.78368 2.7878 7.75647C2.77091 7.69089 2.75754 7.6274 2.74416 7.56182C2.73713 7.52973 2.73009 7.49624 2.72375 7.46415C2.71742 7.43206 2.7132 7.40555 2.70827 7.37694C2.70334 7.34834 2.69842 7.31485 2.69279 7.28276C2.68645 7.23532 2.67941 7.18648 2.67237 7.13625C2.66745 7.09788 2.66252 7.05741 2.6576 7.01695L2.64704 6.90742C2.64211 6.86207 2.63859 6.81532 2.63507 6.76788C2.63155 6.72044 2.63507 6.68416 2.62874 6.64161C2.62522 6.55928 2.62381 6.47696 2.62381 6.39324C2.62381 6.33742 2.62381 6.28231 2.62381 6.22859C2.62381 6.17487 2.62733 6.12882 2.62944 6.07999C2.62944 6.05487 2.62944 6.02836 2.63437 6.00324C2.63437 5.96766 2.6393 5.93348 2.64282 5.89511C2.64633 5.85673 2.65126 5.79953 2.65619 5.75069C2.66111 5.70185 2.66815 5.6579 2.67519 5.61116L2.68997 5.50023C2.69349 5.4786 2.69701 5.45488 2.70194 5.43046C2.71038 5.38651 2.71742 5.34326 2.72587 5.2993C2.73431 5.25535 2.74416 5.20372 2.75613 5.15489C2.75513 5.15147 2.75513 5.14784 2.75613 5.14442C2.85978 4.6747 3.02024 4.21908 3.23402 3.78747C3.72097 2.79702 4.48017 1.96302 5.42422 1.38144C6.36828 0.79986 7.45882 0.494351 8.57032 0.500079H5.93947C4.8293 0.495881 3.74044 0.802104 2.7979 1.38359C1.85536 1.96508 1.09736 2.79826 0.610911 3.78747C0.397222 4.21919 0.236542 4.67476 0.132317 5.14442C0.131634 5.14788 0.131634 5.15143 0.132317 5.15489C0.120352 5.20372 0.110499 5.25047 0.102054 5.2993C0.0936079 5.34814 0.08657 5.38651 0.0781243 5.43046C0.0731976 5.45418 0.0696776 5.4779 0.0661585 5.50023C0.0612318 5.5372 0.0563051 5.57418 0.0506746 5.61116C0.0450441 5.64813 0.0394142 5.70534 0.0337838 5.75069C0.0281533 5.79604 0.023931 5.84836 0.0190043 5.89511C0.0140776 5.94185 0.0133741 5.96487 0.0105589 6.00324C0.0105589 6.02836 0.0105589 6.05487 0.0105589 6.07999C0.00703984 6.12882 0.00492797 6.17766 0.00352035 6.22859C0.00211273 6.27952 0 6.33742 0 6.39324C0 6.47696 0.00351949 6.55928 0.00703855 6.64161C0.00703855 6.68416 0.010558 6.72602 0.0140771 6.76788C0.0175962 6.80974 0.0204124 6.86207 0.0239315 6.90742C0.0274506 6.95276 0.0309685 6.97718 0.0337838 7.01695C0.036599 7.05672 0.044341 7.09788 0.0492677 7.13625C0.0563058 7.18648 0.0626407 7.23532 0.0696789 7.28276C0.0746055 7.31485 0.0802361 7.34485 0.0851628 7.37694L0.0999423 7.46415C0.10698 7.49624 0.114019 7.52973 0.120353 7.56182C0.13443 7.6274 0.147802 7.69089 0.164694 7.75647C0.171732 7.78368 0.178065 7.81089 0.185103 7.83949C0.192141 7.8681 0.200587 7.896 0.206921 7.92321C0.213255 7.95042 0.223814 7.98391 0.232259 8.01251C0.240705 8.04112 0.247744 8.05926 0.254782 8.08228C0.269562 8.1346 0.285044 8.18484 0.304047 8.23507C0.31742 8.27414 0.330793 8.3146 0.34487 8.35437C0.556382 8.93855 0.859196 9.48615 1.24223 9.97713L9.41701 20.5H12.0472L3.86815 9.97713C3.48413 9.48633 3.18036 8.93872 2.96798 8.35437Z" fill="#111928"/>
</svg>
