<svg width="16" height="17" viewBox="0 0 16 17" fill="none" xmlns="http://www.w3.org/2000/svg">
<path d="M12.946 4.24865C12.9427 4.24731 12.9393 4.24531 12.9367 4.24398C12.8713 4.20865 12.3453 3.95065 11.334 3.86398V3.16665H12.0007C12.3687 3.16665 12.6673 2.86865 12.6673 2.49998C12.6673 2.13131 12.3687 1.83331 12.0007 1.83331H10.6673C10.2993 1.83331 10.0007 2.13131 10.0007 2.49998V3.83331H7.92732C8.79398 4.68131 9.33398 5.86131 9.33398 7.16665V10.5H8.00065V7.16665C8.00065 5.32865 6.50532 3.83331 4.66732 3.83331C2.82932 3.83331 1.33398 5.32865 1.33398 7.16665V11.1666C1.33398 11.5353 1.63265 11.8333 2.00065 11.8333H7.33398V14.5C7.33398 14.8686 7.63265 15.1666 8.00065 15.1666H9.33398C9.70198 15.1666 10.0007 14.8686 10.0007 14.5V11.8333H14.0007C14.3693 11.8333 14.6673 11.5346 14.6673 11.1666V7.16665C14.6673 5.95398 14.008 4.83531 12.946 4.24865ZM5.33398 9.83331H4.00065C3.63265 9.83331 3.33398 9.53531 3.33398 9.16665C3.33398 8.79798 3.63265 8.49998 4.00065 8.49998H5.33398C5.70198 8.49998 6.00065 8.79798 6.00065 9.16665C6.00065 9.53531 5.70198 9.83331 5.33398 9.83331Z" fill="#1F2A37"/>
</svg>
