<svg width="25" height="24" viewBox="0 0 25 24" fill="none" xmlns="http://www.w3.org/2000/svg">
<path d="M20.5 7H17.5V9H20.5V16H18.5C18.2348 16 17.9804 16.1054 17.7929 16.2929C17.6054 16.4804 17.5 16.7348 17.5 17V18L15.1 16.2C14.9269 16.0702 14.7164 16 14.5 16H10.5V15.5L8.7 16.852C8.86095 17.1938 9.11545 17.4831 9.43401 17.6863C9.75257 17.8894 10.1222 17.9982 10.5 18H14.167L17.9 20.8C18.0731 20.9298 18.2836 21 18.5 21C18.7652 21 19.0196 20.8946 19.2071 20.7071C19.3946 20.5196 19.5 20.2652 19.5 20V18H20.5C21.0304 18 21.5391 17.7893 21.9142 17.4142C22.2893 17.0391 22.5 16.5304 22.5 16V9C22.5 8.46957 22.2893 7.96086 21.9142 7.58579C21.5391 7.21071 21.0304 7 20.5 7Z" fill="#6B7280"/>
<path d="M6.5 17C6.23478 17 5.98043 16.8946 5.79289 16.7071C5.60536 16.5196 5.5 16.2652 5.5 16V14H4.5C3.96957 14 3.46086 13.7893 3.08579 13.4142C2.71071 13.0391 2.5 12.5304 2.5 12V5C2.5 4.46957 2.71071 3.96086 3.08579 3.58579C3.46086 3.21071 3.96957 3 4.5 3H14.5C15.0304 3 15.5391 3.21071 15.9142 3.58579C16.2893 3.96086 16.5 4.46957 16.5 5V12C16.5 12.5304 16.2893 13.0391 15.9142 13.4142C15.5391 13.7893 15.0304 14 14.5 14H10.833L7.1 16.8C6.9269 16.9298 6.71637 17 6.5 17ZM4.5 5V12H6.5C6.76522 12 7.01957 12.1054 7.20711 12.2929C7.39464 12.4804 7.5 12.7348 7.5 13V14L9.9 12.2C10.0731 12.0702 10.2836 12 10.5 12H14.5V5H4.5Z" fill="#6B7280"/>
</svg>
