<svg width="24" height="24" viewBox="0 0 24 24" fill="none" xmlns="http://www.w3.org/2000/svg">
<path d="M11.75 7V8.25" stroke="#323232" stroke-width="1.5" stroke-linecap="round" stroke-linejoin="round"/>
<path d="M11.75 17V15.75" stroke="#323232" stroke-width="1.5" stroke-linecap="round" stroke-linejoin="round"/>
<path d="M14.237 10C14.172 9.024 13.367 8.25 12.375 8.25H11.005C10.035 8.25 9.25 9.036 9.25 10.005C9.25 10.81 9.798 11.512 10.578 11.708L12.921 12.296C13.702 12.492 14.249 13.194 14.249 13.999C14.249 14.969 13.463 15.754 12.494 15.754H11.124C10.13 15.754 9.325 14.978 9.261 14" stroke="#323232" stroke-width="1.5" stroke-linecap="round" stroke-linejoin="round"/>
<path d="M5.87 5.87199C7.439 4.30299 9.607 3.33299 12.002 3.33299C16.791 3.33299 20.674 7.21399 20.674 12.001C20.674 12.669 20.591 13.317 20.448 13.942" stroke="#323232" stroke-width="1.5" stroke-linecap="round" stroke-linejoin="round"/>
<path d="M19.107 12.602L20.674 14.169L22.241 12.602" stroke="#323232" stroke-width="1.5" stroke-linecap="round" stroke-linejoin="round"/>
<path d="M18.13 18.128C16.561 19.697 14.393 20.667 11.998 20.667C7.209 20.667 3.326 16.786 3.326 11.999C3.326 11.331 3.409 10.683 3.552 10.058" stroke="#323232" stroke-width="1.5" stroke-linecap="round" stroke-linejoin="round"/>
<path d="M4.893 11.398L3.326 9.83099L1.759 11.398" stroke="#323232" stroke-width="1.5" stroke-linecap="round" stroke-linejoin="round"/>
</svg>
