<svg width="16" height="16" viewBox="0 0 16 16" fill="none" xmlns="http://www.w3.org/2000/svg">
<path d="M10.3016 6.54568L10.2986 6.54988L6.01623 10.8327L7.29969 12.1157L11.5857 7.82987L10.3016 6.54568Z" fill="#1A56DB"/>
<path d="M3.88372 8.70001L5.16719 9.9842L9.4502 5.70136L9.4544 5.69836L8.16974 4.41356L3.88372 8.70001Z" fill="#1A56DB"/>
<path d="M3.19729 9.71056L2.03083 13.2097C1.95883 13.4251 2.01523 13.6633 2.17604 13.8236C2.29005 13.9382 2.44365 14 2.60026 14C2.66386 14 2.72807 13.9898 2.78987 13.9688L6.28864 12.8022L3.19729 9.71056Z" fill="#1A56DB"/>
<path d="M13.2934 2.70571C12.3519 1.76476 10.8195 1.76476 9.87802 2.70571L9.01878 3.56503L12.4347 6.98135L13.294 6.12202C14.2354 5.18048 14.2354 3.64725 13.2934 2.70571Z" fill="#1A56DB"/>
</svg>
