<svg width="24" height="24" viewBox="0 0 24 24" fill="none" xmlns="http://www.w3.org/2000/svg">
<path d="M11.5969 14.778C12.0153 15.195 12.582 15.4292 13.1728 15.4292C13.7635 15.4292 14.3302 15.195 14.7486 14.778L15.5366 13.9902C15.955 13.5732 16.5216 13.339 17.1124 13.339C17.7032 13.339 18.2699 13.5732 18.6883 13.9902L20.2642 15.5658C20.4946 15.7587 20.6798 15.9998 20.807 16.272C20.9341 16.5442 21 16.841 21 17.1415C21 17.4419 20.9341 17.7387 20.807 18.0109C20.6798 18.2832 20.4946 18.5242 20.2642 18.7171C16.1376 22.8441 11.3875 20.8836 7.2486 16.7453C3.10969 12.607 1.15898 7.86211 5.28664 3.73509C5.47967 3.50491 5.72079 3.31981 5.99305 3.19281C6.2653 3.06581 6.56208 3 6.86251 3C7.16294 3 7.45972 3.06581 7.73198 3.19281C8.00424 3.31981 8.24536 3.50491 8.43838 3.73509L10.0143 5.31072C10.4316 5.72891 10.666 6.29556 10.666 6.88635C10.666 7.47713 10.4316 8.04379 10.0143 8.46198L9.22632 9.2498C8.80895 9.66799 8.57455 10.2346 8.57455 10.8254C8.57455 11.4162 8.80895 11.9829 9.22632 12.4011L11.5969 14.778Z" fill="#1F2A37"/>
</svg>
