<svg width="17" height="16" viewBox="0 0 17 16" fill="none" xmlns="http://www.w3.org/2000/svg">
<path d="M8.75002 1.33331C7.33599 1.33477 5.98032 1.87718 4.98045 2.84154C3.98059 3.8059 3.4182 5.11344 3.4167 6.47725C3.41454 7.5775 3.78205 8.6488 4.46416 9.53069C4.47705 9.55231 4.4913 9.57315 4.50683 9.5931L8.18113 14.3886C8.24725 14.4749 8.33342 14.5449 8.43271 14.5932C8.53201 14.6415 8.64166 14.6666 8.75286 14.6666C8.86406 14.6666 8.97371 14.6415 9.07301 14.5932C9.1723 14.5449 9.25847 14.4749 9.32459 14.3886L12.996 9.5931C13.0116 9.57339 13.0258 9.55277 13.0387 9.53137C13.7198 8.64889 14.0863 7.57739 14.0833 6.47725C14.0818 5.11344 13.5194 3.8059 12.5196 2.84154C11.5197 1.87718 10.164 1.33477 8.75002 1.33331ZM11.8512 8.76801C11.8316 8.7929 11.8138 8.81902 11.7978 8.8462L8.75002 12.8242L5.70291 8.8462C5.68648 8.81893 5.66844 8.7926 5.64887 8.76733C5.12281 8.11184 4.83786 7.30616 4.83891 6.47725C4.83891 5.47679 5.25098 4.51731 5.98445 3.80989C6.71792 3.10246 7.71273 2.70503 8.75002 2.70503C9.7873 2.70503 10.7821 3.10246 11.5156 3.80989C12.2491 4.51731 12.6611 5.47679 12.6611 6.47725C12.6623 7.30639 12.3774 8.11234 11.8512 8.76801Z" fill="#3F83F8"/>
<path d="M8.75002 3.81749C8.18744 3.81749 7.6375 3.97839 7.16973 4.27984C6.70197 4.58129 6.33739 5.00976 6.1221 5.51106C5.90681 6.01235 5.85048 6.56397 5.96023 7.09614C6.06999 7.62831 6.34089 8.11715 6.7387 8.50082C7.1365 8.8845 7.64333 9.14578 8.19509 9.25164C8.74686 9.3575 9.31878 9.30317 9.83854 9.09552C10.3583 8.88788 10.8025 8.53625 11.1151 8.08509C11.4276 7.63394 11.5945 7.10352 11.5945 6.56092C11.5935 5.8336 11.2935 5.13632 10.7603 4.62203C10.2271 4.10773 9.50412 3.8184 8.75002 3.81749ZM8.75002 7.93264C8.46873 7.93264 8.19376 7.85219 7.95987 7.70146C7.72599 7.55074 7.5437 7.3365 7.43606 7.08586C7.32841 6.83521 7.30025 6.5594 7.35512 6.29331C7.41 6.02723 7.54545 5.78281 7.74436 5.59097C7.94326 5.39914 8.19667 5.26849 8.47256 5.21556C8.74844 5.16264 9.0344 5.1898 9.29428 5.29362C9.55415 5.39744 9.77627 5.57326 9.93255 5.79884C10.0888 6.02442 10.1722 6.28962 10.1722 6.56092C10.1722 6.92472 10.0224 7.27363 9.75568 7.53087C9.48896 7.78812 9.12721 7.93264 8.75002 7.93264Z" fill="#3F83F8"/>
</svg>
