<svg width="16" height="16" viewBox="0 0 16 16" fill="none" xmlns="http://www.w3.org/2000/svg">
<path d="M8.0013 1.33301C6.58728 1.33446 5.2316 1.87688 4.23173 2.84124C3.23187 3.8056 2.66948 5.11313 2.66798 6.47694C2.66582 7.57719 3.03333 8.6485 3.71544 9.53038C3.72833 9.552 3.74258 9.57285 3.75811 9.5928L7.43241 14.3883C7.49853 14.4745 7.5847 14.5446 7.684 14.5929C7.78329 14.6412 7.89294 14.6663 8.00414 14.6663C8.11534 14.6663 8.22499 14.6412 8.32429 14.5929C8.42358 14.5446 8.50975 14.4745 8.57587 14.3883L12.2473 9.5928C12.2629 9.57308 12.2771 9.55247 12.29 9.53107C12.9711 8.64858 13.3376 7.57709 13.3346 6.47694C13.3331 5.11313 12.7707 3.8056 11.7709 2.84124C10.771 1.87688 9.41532 1.33446 8.0013 1.33301ZM11.1024 8.76771C11.0829 8.79259 11.0651 8.81871 11.0491 8.8459L8.0013 12.8239L4.95419 8.8459C4.93776 8.81863 4.91972 8.79229 4.90015 8.76702C4.37409 8.11154 4.08914 7.30585 4.0902 6.47694C4.0902 5.47649 4.50226 4.51701 5.23573 3.80958C5.96921 3.10215 6.96401 2.70472 8.0013 2.70472C9.03859 2.70472 10.0334 3.10215 10.7669 3.80958C11.5003 4.51701 11.9124 5.47649 11.9124 6.47694C11.9136 7.30609 11.6287 8.11204 11.1024 8.76771Z" fill="#6B7280"/>
<path d="M8.0013 3.81719C7.43872 3.81719 6.88878 3.97809 6.42101 4.27954C5.95325 4.58099 5.58867 5.00946 5.37338 5.51075C5.15809 6.01205 5.10176 6.56366 5.21152 7.09583C5.32127 7.62801 5.59218 8.11684 5.98998 8.50052C6.38778 8.88419 6.89461 9.14548 7.44638 9.25134C7.99814 9.35719 8.57006 9.30286 9.08982 9.09522C9.60957 8.88757 10.0538 8.53594 10.3664 8.08479C10.6789 7.63363 10.8457 7.10322 10.8457 6.56062C10.8448 5.83329 10.5448 5.13602 10.0116 4.62172C9.47835 4.10742 8.7554 3.81809 8.0013 3.81719ZM8.0013 7.93233C7.72001 7.93233 7.44504 7.85188 7.21116 7.70116C6.97727 7.55043 6.79498 7.3362 6.68734 7.08555C6.57969 6.8349 6.55153 6.5591 6.60641 6.29301C6.66128 6.02692 6.79674 5.78251 6.99564 5.59067C7.19454 5.39883 7.44795 5.26819 7.72384 5.21526C7.99972 5.16233 8.28568 5.1895 8.54556 5.29332C8.80543 5.39714 9.02755 5.57296 9.18383 5.79853C9.3401 6.02411 9.42352 6.28932 9.42352 6.56062C9.42352 6.92442 9.27368 7.27332 9.00696 7.53057C8.74024 7.78781 8.37849 7.93233 8.0013 7.93233Z" fill="#6B7280"/>
</svg>
