<svg width="24" height="24" viewBox="0 0 24 24" fill="none" xmlns="http://www.w3.org/2000/svg">
<path d="M12 21C10.22 21 8.47991 20.4722 6.99987 19.4832C5.51983 18.4943 4.36628 17.0887 3.68509 15.4442C3.0039 13.7996 2.82567 11.99 3.17294 10.2442C3.5202 8.49836 4.37737 6.89471 5.63604 5.63604C6.89471 4.37737 8.49836 3.5202 10.2442 3.17294C11.99 2.82567 13.7996 3.0039 15.4442 3.68509C17.0887 4.36628 18.4943 5.51983 19.4832 6.99987C20.4722 8.47991 21 10.22 21 12C20.9974 14.3861 20.0483 16.6738 18.3611 18.3611C16.6738 20.0483 14.3861 20.9974 12 21ZM12 4.8C10.576 4.8 9.18393 5.22228 7.9999 6.01342C6.81586 6.80457 5.89302 7.92905 5.34807 9.24468C4.80312 10.5603 4.66054 12.008 4.93835 13.4047C5.21616 14.8013 5.9019 16.0842 6.90883 17.0912C7.91577 18.0981 9.19869 18.7838 10.5954 19.0617C11.992 19.3395 13.4397 19.1969 14.7553 18.6519C16.071 18.107 17.1954 17.1841 17.9866 16.0001C18.7777 14.8161 19.2 13.424 19.2 12C19.1979 10.0911 18.4386 8.261 17.0888 6.9112C15.739 5.5614 13.9089 4.80215 12 4.8Z" fill="#1F2A37"/>
<path d="M12 14.7C11.7613 14.7 11.5324 14.6052 11.3636 14.4364C11.1948 14.2676 11.1 14.0387 11.1 13.8V12.5238C11.1 12.4026 11.1245 12.2827 11.1719 12.1712C11.2194 12.0597 11.2889 11.9589 11.3763 11.8749C11.463 11.7904 11.5661 11.7246 11.6793 11.6816C11.7925 11.6385 11.9133 11.6192 12.0342 11.6247C12.2082 11.631 12.3817 11.6021 12.5442 11.5397C12.7068 11.4773 12.855 11.3827 12.9801 11.2616C13.1052 11.1404 13.2045 10.9953 13.2721 10.8348C13.3397 10.6744 13.3741 10.5019 13.3734 10.3278C13.3872 9.96976 13.2583 9.62088 13.0149 9.35792C12.7715 9.09496 12.4336 8.93945 12.0756 8.9256C11.7176 8.91176 11.3687 9.04071 11.1057 9.2841C10.8428 9.52748 10.6872 9.86536 10.6734 10.2234C10.6706 10.342 10.644 10.4588 10.5952 10.567C10.5464 10.6751 10.4765 10.7724 10.3894 10.853C10.3024 10.9336 10.2001 10.996 10.0886 11.0364C9.97707 11.0768 9.85857 11.0945 9.7401 11.0883C9.50183 11.0789 9.27701 10.9754 9.11502 10.8004C8.95302 10.6254 8.8671 10.3933 8.8761 10.155C8.90165 9.57625 9.08631 9.01576 9.40977 8.53516C9.73322 8.05455 10.1829 7.67245 10.7095 7.43088C11.236 7.18931 11.819 7.09762 12.3943 7.16589C12.9695 7.23416 13.5149 7.45976 13.9702 7.81786C14.4256 8.17597 14.7734 8.65272 14.9754 9.19568C15.1774 9.73864 15.2257 10.3268 15.1151 10.8954C15.0045 11.4641 14.7392 11.9912 14.3484 12.4189C13.9576 12.8465 13.4564 13.1581 12.9 13.3194V13.8C12.9 14.0387 12.8052 14.2676 12.6364 14.4364C12.4676 14.6052 12.2387 14.7 12 14.7Z" fill="#1F2A37"/>
<path d="M12 17.4C12.4971 17.4 12.9 16.9971 12.9 16.5C12.9 16.0029 12.4971 15.6 12 15.6C11.5029 15.6 11.1 16.0029 11.1 16.5C11.1 16.9971 11.5029 17.4 12 17.4Z" fill="#1F2A37"/>
</svg>
