<svg width="16" height="16" viewBox="0 0 16 16" fill="none" xmlns="http://www.w3.org/2000/svg">
<path d="M12.2579 1.3839C12.0086 1.27924 11.7226 1.3379 11.5313 1.52857L10.6693 2.39057L9.80727 1.52857C9.5466 1.2679 9.12527 1.2679 8.8646 1.52857L8.0026 2.39057L7.1406 1.52857C6.87994 1.2679 6.4586 1.2679 6.19794 1.52857L5.33594 2.39057L4.47394 1.52857C4.28327 1.3379 3.99727 1.2799 3.74727 1.3839C3.49794 1.48657 3.33594 1.73057 3.33594 1.9999V13.9999C3.33594 14.2692 3.49794 14.5132 3.74727 14.6159C3.9966 14.7199 4.28327 14.6626 4.47394 14.4712L5.33594 13.6092L6.19794 14.4712C6.4586 14.7319 6.87994 14.7319 7.1406 14.4712L8.0026 13.6092L8.8646 14.4712C9.12527 14.7319 9.5466 14.7319 9.80727 14.4712L10.6693 13.6092L11.5313 14.4712C11.6586 14.5986 11.8293 14.6666 12.0026 14.6666C12.0886 14.6666 12.1753 14.6506 12.2579 14.6159C12.5073 14.5132 12.6693 14.2692 12.6693 13.9999V1.9999C12.6693 1.73057 12.5073 1.48657 12.2579 1.3839ZM11.3359 12.3906L11.1406 12.1952C10.8799 11.9346 10.4586 11.9346 10.1979 12.1952L9.33594 13.0572L8.47394 12.1952C8.34394 12.0652 8.17327 11.9999 8.0026 11.9999C7.83194 11.9999 7.66127 12.0652 7.53127 12.1952L6.66927 13.0572L5.80727 12.1952C5.5466 11.9346 5.12527 11.9346 4.8646 12.1952L4.66927 12.3906V3.60924L4.8646 3.80457C5.12527 4.06524 5.5466 4.06524 5.80727 3.80457L6.66927 2.94257L7.53127 3.80457C7.79194 4.06524 8.21327 4.06524 8.47394 3.80457L9.33594 2.94257L10.1979 3.80457C10.4586 4.06524 10.8799 4.06524 11.1406 3.80457L11.3359 3.60924V12.3906Z" fill="#3F83F8"/>
<path d="M10.0026 4.66657H6.0026C5.63394 4.66657 5.33594 4.96457 5.33594 5.33324C5.33594 5.70191 5.63394 5.99991 6.0026 5.99991H10.0026C10.3713 5.99991 10.6693 5.70191 10.6693 5.33324C10.6693 4.96457 10.3713 4.66657 10.0026 4.66657Z" fill="#3F83F8"/>
<path d="M10.0026 7.33324H6.0026C5.63394 7.33324 5.33594 7.63124 5.33594 7.99991C5.33594 8.36857 5.63394 8.66657 6.0026 8.66657H10.0026C10.3713 8.66657 10.6693 8.36857 10.6693 7.99991C10.6693 7.63124 10.3713 7.33324 10.0026 7.33324Z" fill="#3F83F8"/>
<path d="M10.0026 9.99991H6.0026C5.63394 9.99991 5.33594 10.2979 5.33594 10.6666C5.33594 11.0352 5.63394 11.3332 6.0026 11.3332H10.0026C10.3713 11.3332 10.6693 11.0352 10.6693 10.6666C10.6693 10.2979 10.3713 9.99991 10.0026 9.99991Z" fill="#3F83F8"/>
</svg>
