<svg width="33" height="32" viewBox="0 0 33 32" fill="none" xmlns="http://www.w3.org/2000/svg">
<path d="M23.3334 4H20.6667C19.5621 4 18.6667 4.89543 18.6667 6V10C18.6667 11.1046 19.5621 12 20.6667 12H23.3334C24.4379 12 25.3334 11.1046 25.3334 10V6C25.3334 4.89543 24.4379 4 23.3334 4Z" fill="#EFBB00"/>
<path d="M9.52671 6.19334L8.19338 7.52668C8.13089 7.58865 8.0813 7.66239 8.04745 7.74363C8.0136 7.82487 7.99618 7.912 7.99618 8.00001C7.99618 8.08802 8.0136 8.17516 8.04745 8.2564C8.0813 8.33764 8.13089 8.41137 8.19338 8.47334L9.52671 9.80668C9.589 9.86847 9.66288 9.91735 9.74411 9.95053C9.82533 9.9837 9.91231 10.0005 10 10H11.3334C11.4663 9.98638 11.5947 9.94418 11.7097 9.87629C11.8248 9.8084 11.9238 9.71642 12 9.60668C12.0542 9.70337 12.1291 9.7868 12.2195 9.85092C12.3099 9.91504 12.4134 9.95825 12.5226 9.97739C12.6317 9.99654 12.7437 9.99116 12.8505 9.96163C12.9573 9.9321 13.0562 9.87917 13.14 9.80668L13.3334 9.60668C13.4102 9.71581 13.5094 9.80733 13.6243 9.87515C13.7393 9.94297 13.8674 9.98553 14 10H17.3334V6.00001H10C9.91231 5.9995 9.82533 6.01632 9.74411 6.0495C9.66288 6.08267 9.589 6.13156 9.52671 6.19334ZM30.9267 18.72C30.9267 18.72 21.5667 14.6667 21.48 14.6667H14.86C14.3365 14.6735 13.8325 14.8668 13.4387 15.2118C13.0449 15.5569 12.787 16.0311 12.7115 16.5492C12.636 17.0674 12.7478 17.5954 13.0267 18.0385C13.3057 18.4817 13.7335 18.8108 14.2334 18.9667L18.36 20.2067L16.5267 21.3333L4.40671 19.5733C4.10768 19.5303 3.8029 19.5521 3.51303 19.6372C3.22316 19.7223 2.95499 19.8688 2.72671 20.0667C2.45464 20.3104 2.24992 20.62 2.13227 20.9658C2.01462 21.3116 1.98801 21.6818 2.05499 22.0409C2.12198 22.3999 2.28031 22.7356 2.51473 23.0157C2.74914 23.2958 3.05175 23.5108 3.39338 23.64C3.39338 23.64 15.14 28 15.22 28H20.0934C20.16 28 30.8667 24.6667 30.8667 24.6667C31.0072 24.6227 31.1291 24.5334 31.2136 24.4128C31.298 24.2922 31.3401 24.1471 31.3334 24V19.3333C31.3333 19.2025 31.2947 19.0745 31.2223 18.9655C31.15 18.8564 31.0472 18.771 30.9267 18.72Z" fill="#EFBB00"/>
</svg>
