<svg width="20" height="20" viewBox="0 0 20 20" fill="none" xmlns="http://www.w3.org/2000/svg">
<path d="M17.4184 10.4452C17.4996 10.2325 17.5208 9.99846 17.4794 9.77267C17.438 9.54689 17.3359 9.33951 17.1859 9.17677L12.8999 4.52201C12.8011 4.41086 12.6829 4.32221 12.5521 4.26122C12.4214 4.20024 12.2808 4.16813 12.1385 4.16679C11.9963 4.16545 11.8552 4.19489 11.7235 4.2534C11.5918 4.31192 11.4722 4.39832 11.3716 4.50758C11.271 4.61685 11.1914 4.74678 11.1375 4.88979C11.0836 5.0328 11.0565 5.18604 11.0578 5.34055C11.059 5.49506 11.0886 5.64776 11.1447 5.78974C11.2009 5.93171 11.2825 6.06012 11.3848 6.16747L13.8429 8.83697H3.5715C3.28732 8.83697 3.01478 8.95958 2.81383 9.17781C2.61289 9.39604 2.5 9.69203 2.5 10.0007C2.5 10.3093 2.61289 10.6053 2.81383 10.8235C3.01478 11.0418 3.28732 11.1644 3.5715 11.1644H13.8429L11.3859 13.8327C11.2836 13.94 11.202 14.0684 11.1458 14.2104C11.0896 14.3524 11.0601 14.5051 11.0588 14.6596C11.0576 14.8141 11.0847 14.9674 11.1386 15.1104C11.1925 15.2534 11.272 15.3833 11.3726 15.4926C11.4732 15.6018 11.5929 15.6882 11.7246 15.7468C11.8562 15.8053 11.9973 15.8347 12.1396 15.8334C12.2819 15.832 12.4225 15.7999 12.5532 15.7389C12.6839 15.6779 12.8022 15.5893 12.901 15.4782L17.187 10.8234C17.2863 10.7151 17.3649 10.5865 17.4184 10.4452Z" fill="#3F83F8"/>
</svg>
