<svg width="81" height="80" viewBox="0 0 81 80" fill="none" xmlns="http://www.w3.org/2000/svg">
<rect x="0.5" width="80" height="80" rx="40" fill="#D1D5DB"/>
<path d="M50.9993 36H48.4993V32.25C48.4993 30.4598 47.7092 28.7429 46.3026 27.477C44.8961 26.2112 42.9885 25.5 40.9993 25.5C39.0102 25.5 37.1026 26.2112 35.696 27.477C34.2895 28.7429 33.4993 30.4598 33.4993 32.25V36H30.9993C30.1153 36 29.2674 36.3161 28.6423 36.8787C28.0172 37.4413 27.666 38.2044 27.666 39V52.5C27.666 53.2956 28.0172 54.0587 28.6423 54.6213C29.2674 55.1839 30.1153 55.5 30.9993 55.5H50.9993C51.8834 55.5 52.7312 55.1839 53.3564 54.6213C53.9815 54.0587 54.3327 53.2956 54.3327 52.5V39C54.3327 38.2044 53.9815 37.4413 53.3564 36.8787C52.7312 36.3161 51.8834 36 50.9993 36ZM36.8327 32.25C36.8327 31.2554 37.2717 30.3016 38.0531 29.5983C38.8345 28.8951 39.8943 28.5 40.9993 28.5C42.1044 28.5 43.1642 28.8951 43.9456 29.5983C44.727 30.3016 45.166 31.2554 45.166 32.25V36H36.8327V32.25ZM50.9993 52.5H30.9993V39H50.9993V52.5Z" fill="#9CA3AF"/>
<path d="M40.9993 42C40.5573 42 40.1334 42.158 39.8208 42.4393C39.5083 42.7206 39.3327 43.1022 39.3327 43.5V48C39.3327 48.3978 39.5083 48.7794 39.8208 49.0607C40.1334 49.342 40.5573 49.5 40.9993 49.5C41.4414 49.5 41.8653 49.342 42.1779 49.0607C42.4904 48.7794 42.666 48.3978 42.666 48V43.5C42.666 43.1022 42.4904 42.7206 42.1779 42.4393C41.8653 42.158 41.4414 42 40.9993 42Z" fill="#9CA3AF"/>
</svg>
