<svg width="20" height="20" viewBox="0 0 20 20" fill="none" xmlns="http://www.w3.org/2000/svg">
<path d="M15.7775 11.3333V15.6293C15.7776 15.7656 15.7508 15.9005 15.6987 16.0264C15.6466 16.1523 15.5702 16.2667 15.4739 16.3631C15.3775 16.4594 15.2631 16.5358 15.1372 16.5879C15.0113 16.64 14.8764 16.6668 14.7401 16.6666H4.37034C4.23408 16.6668 4.09914 16.64 3.97323 16.5879C3.84733 16.5358 3.73292 16.4594 3.63658 16.3631C3.54023 16.2667 3.46382 16.1523 3.41173 16.0264C3.35964 15.9005 3.33289 15.7656 3.33301 15.6293V5.25954C3.33289 5.12328 3.35964 4.98833 3.41173 4.86243C3.46382 4.73652 3.54023 4.62212 3.63658 4.52577C3.73292 4.42942 3.84733 4.35302 3.97323 4.30093C4.09914 4.24884 4.23408 4.22208 4.37034 4.2222H8.47523M11.5392 3.33331H16.6663V8.46042M9.6539 10.3458L16.5677 3.43198" stroke="#1F2A37" stroke-width="2" stroke-linecap="round" stroke-linejoin="round"/>
</svg>
