<svg width="20" height="21" viewBox="0 0 20 21" fill="none" xmlns="http://www.w3.org/2000/svg">
<path d="M10.1845 14.9102C10.0175 14.754 9.79108 14.6662 9.55499 14.6662C9.3189 14.6662 9.09248 14.754 8.92551 14.9102L7.77429 15.9876V7.16634C7.77429 6.94534 7.68049 6.73338 7.51352 6.57711C7.34654 6.42084 7.12008 6.33304 6.88395 6.33304C6.64781 6.33304 6.42135 6.42084 6.25438 6.57711C6.0874 6.73338 5.9936 6.94534 5.9936 7.16634V15.9876L4.84238 14.9102C4.67446 14.7584 4.44955 14.6744 4.21611 14.6763C3.98266 14.6782 3.75935 14.7658 3.59427 14.9203C3.4292 15.0748 3.33556 15.2838 3.33353 15.5023C3.3315 15.7208 3.42124 15.9313 3.58343 16.0885L6.25447 18.5884C6.33739 18.6661 6.43607 18.7276 6.54472 18.7692C6.6524 18.8115 6.76803 18.8334 6.88484 18.8334C7.00164 18.8334 7.11727 18.8115 7.22495 18.7692C7.3336 18.7276 7.43228 18.6661 7.5152 18.5884L10.1862 16.0885C10.3529 15.932 10.4464 15.7199 10.446 15.499C10.4457 15.278 10.3516 15.0662 10.1845 14.9102Z" fill="#3F83F8"/>
<path d="M16.4169 4.9106L13.7459 2.41071C13.6629 2.33295 13.5643 2.27147 13.4556 2.22988C13.2378 2.14562 12.9932 2.14562 12.7754 2.22988C12.6667 2.27147 12.568 2.33295 12.4851 2.41071L9.81408 4.9106C9.6519 5.06776 9.56215 5.27826 9.56418 5.49675C9.56621 5.71523 9.65985 5.92424 9.82493 6.07874C9.99 6.23324 10.2133 6.32087 10.4468 6.32277C10.6802 6.32467 10.9051 6.24068 11.073 6.08889L12.226 5.01143V13.8327C12.226 14.0537 12.3198 14.2657 12.4868 14.422C12.6538 14.5782 12.8802 14.666 13.1164 14.666C13.3525 14.666 13.579 14.5782 13.7459 14.422C13.9129 14.2657 14.0067 14.0537 14.0067 13.8327V5.01143L15.1579 6.08889C15.3259 6.24068 15.5508 6.32467 15.7842 6.32277C16.0177 6.32087 16.241 6.23324 16.4061 6.07874C16.5711 5.92424 16.6648 5.71523 16.6668 5.49675C16.6688 5.27826 16.5791 5.06776 16.4169 4.9106Z" fill="#3F83F8"/>
</svg>
