<svg width="32" height="32" viewBox="0 0 32 32" fill="none" xmlns="http://www.w3.org/2000/svg">
<path d="M29.8704 13.3446L27.756 12.9218C27.5239 12.1518 27.2154 11.407 26.8353 10.6982L28.0312 8.90449C28.1402 8.74108 28.1892 8.54495 28.1698 8.34949C28.1505 8.15403 28.064 7.97132 27.9251 7.83245L24.721 4.62835C24.5821 4.48948 24.3994 4.40301 24.204 4.38365C24.0085 4.36429 23.8124 4.41323 23.649 4.52215L21.8551 5.718C21.1464 5.33797 20.4015 5.02956 19.6316 4.79737L19.2087 2.68297C19.1702 2.49038 19.0662 2.31708 18.9143 2.19256C18.7624 2.06805 18.5721 2 18.3757 2H13.8444C13.648 2 13.4577 2.06804 13.3058 2.19256C13.1539 2.31708 13.0498 2.49038 13.0113 2.68297L12.5885 4.79737C11.8185 5.02959 11.0737 5.33799 10.3649 5.718L8.57107 4.52215C8.40763 4.41323 8.21151 4.36429 8.01607 4.38365C7.82062 4.40301 7.63792 4.48948 7.49903 4.62835L4.29498 7.83245C4.15608 7.97133 4.0696 8.15404 4.05025 8.3495C4.03089 8.54495 4.07987 8.74108 4.18884 8.90449L5.38469 10.6982C5.00463 11.407 4.69621 12.1518 4.464 12.9218L2.34966 13.3446C2.15706 13.3831 1.98377 13.4872 1.85925 13.6391C1.73473 13.791 1.66668 13.9813 1.66669 14.1777V18.709C1.66669 19.114 1.95255 19.4627 2.34972 19.5421L4.46405 19.9649C4.69625 20.7349 5.00467 21.4797 5.38475 22.1884L4.18889 23.9822C4.07994 24.1456 4.03097 24.3418 4.05032 24.5372C4.06967 24.7327 4.15615 24.9154 4.29504 25.0543L7.49909 28.2583C7.63796 28.3972 7.82067 28.4837 8.01612 28.503C8.21157 28.5224 8.4077 28.4734 8.57112 28.3645L10.3282 27.1932V21.8596C8.99763 20.4433 8.18036 18.5405 8.18036 16.4434C8.18036 12.0639 11.7306 8.51367 16.11 8.51367C20.4895 8.51367 24.0397 12.0639 24.0397 16.4434C24.0397 18.5405 23.2225 20.4433 21.8919 21.8596V27.1932L23.649 28.3645C23.7884 28.4576 23.9523 28.5073 24.1199 28.5072C24.3392 28.5072 24.5568 28.4226 24.721 28.2584L27.925 25.0543C28.0639 24.9154 28.1504 24.7327 28.1697 24.5373C28.1891 24.3418 28.1401 24.1457 28.0311 23.9823L26.8353 22.1885C27.2153 21.4798 27.5238 20.7349 27.756 19.965L29.8703 19.5421C30.0629 19.5036 30.2363 19.3996 30.3608 19.2477C30.4853 19.0958 30.5534 18.9054 30.5534 18.709V14.1777C30.5534 13.9813 30.4854 13.791 30.3608 13.6391C30.2363 13.4872 30.063 13.3831 29.8704 13.3446Z" fill="#EFBB00"/>
<path d="M18.8016 11.7881C18.374 11.5405 17.8315 11.8033 17.7608 12.2923L17.2429 15.877H14.9772L14.4593 12.2923C14.3886 11.8033 13.8462 11.5405 13.4186 11.7881C11.7596 12.7491 10.7292 14.5329 10.7292 16.4434C10.7292 18.5137 11.8886 20.3657 13.755 21.2767L13.8444 21.3204V30.1504C13.8444 30.6196 14.2248 31 14.694 31H17.5261C17.9953 31 18.3757 30.6196 18.3757 30.1504V21.3204L18.4651 21.2767C20.3315 20.3657 21.4909 18.5137 21.4909 16.4434C21.4909 14.5329 20.4604 12.7491 18.8016 11.7881Z" fill="#EFBB00"/>
</svg>
