<svg width="24" height="24" viewBox="0 0 24 24" fill="none" xmlns="http://www.w3.org/2000/svg">
<path d="M18.1251 22.4998C16.6776 22.4998 15.5001 21.3223 15.5001 19.8748V10.0251C14.8092 9.58623 14.2406 8.97974 13.8472 8.26204C13.4538 7.54434 13.2484 6.73877 13.2501 5.92032C13.2484 5.02202 13.496 4.14088 13.9652 3.37489C14.4345 2.60891 15.107 1.98812 15.9081 1.58157C16.0225 1.5234 16.1499 1.49552 16.2782 1.50059C16.4065 1.50565 16.5313 1.54349 16.6408 1.6105C16.7503 1.67751 16.8408 1.77145 16.9037 1.88336C16.9666 1.99528 16.9998 2.12144 17.0001 2.24982V5.49207L18.1251 5.94207L19.2501 5.49207V2.24982C19.2504 2.12144 19.2835 1.99528 19.3464 1.88336C19.4093 1.77145 19.4998 1.67751 19.6093 1.6105C19.7188 1.54349 19.8436 1.50565 19.9719 1.50059C20.1002 1.49552 20.2276 1.5234 20.3421 1.58157C21.1431 1.98831 21.8156 2.60925 22.2849 3.37535C22.7541 4.14145 23.0017 5.02268 23.0001 5.92107C23.0015 6.73948 22.796 7.54497 22.4027 8.26263C22.0093 8.9803 21.4408 9.58683 20.7501 10.0258V19.8748C20.7501 21.3223 19.5726 22.4998 18.1251 22.4998ZM15.5001 3.79932C15.0223 4.38807 14.7501 5.13057 14.7501 5.92032C14.7501 7.19082 15.4558 8.34207 16.5921 8.92407C16.7149 8.98701 16.818 9.08263 16.89 9.20041C16.962 9.31818 17.0001 9.45353 17.0001 9.59157V19.8748C17.0001 20.4951 17.5048 20.9998 18.1251 20.9998C18.7453 20.9998 19.2501 20.4951 19.2501 19.8748V9.59157C19.2501 9.45353 19.2882 9.31818 19.3601 9.20041C19.4321 9.08263 19.5352 8.98701 19.6581 8.92407C20.2128 8.64279 20.6786 8.2132 21.0038 7.68306C21.3289 7.15292 21.5007 6.54299 21.5001 5.92107C21.5015 5.14885 21.2366 4.39976 20.7501 3.80007V5.99982C20.7501 6.30657 20.5633 6.58182 20.2791 6.69657L18.4041 7.44657C18.2253 7.5186 18.0256 7.5186 17.8468 7.44657L15.9718 6.69657C15.8326 6.64075 15.7134 6.54457 15.6293 6.42041C15.5452 6.29624 15.5002 6.14977 15.5001 5.99982V3.79932Z" fill="#EFBB00"/>
<path d="M12.8055 22.5H11.1953C10.8178 22.4986 10.4547 22.3555 10.1777 22.0991C9.90078 21.8427 9.7302 21.4917 9.69975 21.1155L9.60525 19.8892C9.08987 19.7328 8.5912 19.5257 8.1165 19.2712L7.182 20.0715C6.89463 20.3161 6.52591 20.4439 6.14883 20.4296C5.77174 20.4152 5.41376 20.2599 5.14575 19.9943L4.00575 18.8535C3.7401 18.5854 3.5847 18.2273 3.57026 17.8502C3.55582 17.473 3.68338 17.1042 3.92775 16.8165L4.728 15.8828C4.4735 15.408 4.2665 14.9094 4.11 14.394L2.8845 14.3002C2.50837 14.27 2.15734 14.0996 1.90092 13.8227C1.6445 13.5459 1.50142 13.1828 1.5 12.8055V11.1945C1.5 10.4152 2.10825 9.75825 2.88525 9.699L4.11075 9.60525C4.26675 9.09 4.47375 8.592 4.72875 8.1165L3.92775 7.18125C3.68332 6.89357 3.55577 6.52463 3.57036 6.14741C3.58494 5.7702 3.74059 5.4122 4.0065 5.14425L5.145 4.005C5.41304 3.73919 5.77109 3.58368 6.14831 3.56924C6.52552 3.5548 6.89442 3.68247 7.182 3.927L8.1165 4.72725C8.5912 4.47275 9.08987 4.26575 9.60525 4.10925L9.69975 2.883C9.73054 2.50721 9.90118 2.15663 10.1779 1.90056C10.4547 1.64449 10.8175 1.50156 11.1945 1.5H12C12.1989 1.5 12.3897 1.57902 12.5303 1.71967C12.671 1.86032 12.75 2.05109 12.75 2.25C12.75 2.44891 12.671 2.63968 12.5303 2.78033C12.3897 2.92098 12.1989 3 12 3H11.1945L11.0595 4.75575C11.0472 4.91491 10.9843 5.06598 10.8802 5.18697C10.7761 5.30797 10.636 5.39258 10.4805 5.4285C9.75427 5.59579 9.06119 5.88352 8.43 6.27975C8.29469 6.365 8.13558 6.40453 7.97611 6.39251C7.81664 6.3805 7.66525 6.31757 7.54425 6.213L6.2055 5.06625L5.067 6.20625L6.21375 7.54425C6.4275 7.79325 6.45375 8.1525 6.27975 8.43C5.8841 9.06148 5.59641 9.75447 5.4285 10.4805C5.39265 10.6362 5.30796 10.7764 5.18679 10.8806C5.06562 10.9847 4.91433 11.0474 4.755 11.0595L3 11.1945V12.8055L4.755 12.9405C4.91429 12.9527 5.06553 13.0154 5.18667 13.1196C5.30782 13.2237 5.39254 13.3638 5.4285 13.5195C5.59579 14.2457 5.88352 14.9388 6.27975 15.57C6.36453 15.7054 6.40384 15.8644 6.39197 16.0237C6.3801 16.183 6.31766 16.3344 6.21375 16.4557L5.067 17.7938L6.20625 18.9338L7.54425 17.787C7.66542 17.6828 7.81677 17.62 7.97615 17.608C8.13554 17.596 8.29458 17.6353 8.43 17.7203C9.066 18.1178 9.756 18.4042 10.4805 18.5715C10.636 18.6074 10.7761 18.692 10.8802 18.813C10.9843 18.934 11.0472 19.0851 11.0595 19.2443L11.1945 21H12.8047C12.8116 20.9012 12.8379 20.8048 12.8822 20.7163C12.9265 20.6278 12.9879 20.5489 13.0628 20.4842C13.1377 20.4195 13.2247 20.3703 13.3187 20.3394C13.4128 20.3085 13.512 20.2965 13.6107 20.3041C13.7094 20.3117 13.8056 20.3388 13.8938 20.3838C13.982 20.4288 14.0604 20.4908 14.1245 20.5662C14.1886 20.6416 14.2371 20.729 14.2673 20.8233C14.2974 20.9176 14.3086 21.0169 14.3002 21.1155C14.2698 21.4916 14.0993 21.8425 13.8225 22.0989C13.5457 22.3553 13.1828 22.4984 12.8055 22.5Z" fill="#EFBB00"/>
<path d="M6.75 12C6.74597 10.758 7.18406 9.55504 7.98587 8.60648C8.78768 7.65791 9.90088 7.02562 11.1262 6.82278C11.2234 6.80604 11.3229 6.80873 11.419 6.83068C11.5152 6.85263 11.606 6.89341 11.6863 6.95067C11.7665 7.00792 11.8346 7.08051 11.8867 7.16425C11.9387 7.24799 11.9737 7.34121 11.9895 7.43853C12.0223 7.63465 11.9758 7.83575 11.8603 7.99763C11.7449 8.1595 11.5698 8.2689 11.3737 8.30178C10.4989 8.44721 9.70426 8.89909 9.13198 9.57663C8.5597 10.2542 8.24707 11.1132 8.25 12C8.25 14.5898 10.8225 16.3958 13.2502 15.537C13.4357 15.478 13.6369 15.4935 13.8112 15.5801C13.9855 15.6667 14.1194 15.8177 14.1844 16.0011C14.2494 16.1846 14.2406 16.3861 14.1598 16.5632C14.079 16.7403 13.9325 16.879 13.7512 16.95C10.3365 18.1583 6.75 15.612 6.75 12Z" fill="#EFBB00"/>
</svg>
