<svg width="32" height="32" viewBox="0 0 32 32" fill="none" xmlns="http://www.w3.org/2000/svg">
<path d="M9.71996 28C9.45208 27.9992 9.18758 27.9376 8.94485 27.8193C8.70212 27.7011 8.48699 27.5292 8.31442 27.3154C8.14185 27.1017 8.01598 26.8513 7.94557 26.5817C7.87515 26.3121 7.86188 26.0297 7.90667 25.7542L8.94232 19.4563L4.55492 14.9985C4.30921 14.7481 4.1355 14.4311 4.0534 14.0832C3.9713 13.7353 3.98408 13.3704 4.09029 13.0297C4.19651 12.6889 4.39193 12.386 4.65449 12.155C4.91705 11.924 5.23629 11.7742 5.57616 11.7225L11.6376 10.8036L14.3486 5.07148C14.5005 4.74989 14.7357 4.47909 15.0275 4.28973C15.3193 4.10036 15.6562 4 15.9998 4C16.3435 4 16.6804 4.10036 16.9722 4.28973C17.264 4.47909 17.4992 4.74989 17.6511 5.07148L20.362 10.8011L26.4235 11.7199C26.7634 11.7714 27.0827 11.921 27.3453 12.1519C27.608 12.3827 27.8035 12.6856 27.9097 13.0263C28.0159 13.367 28.0287 13.7319 27.9465 14.0797C27.8644 14.4276 27.6906 14.7445 27.4448 14.9947L23.0574 19.4563L24.093 25.753C24.1511 26.1062 24.1133 26.4693 23.9838 26.8012C23.8544 27.1331 23.6385 27.4207 23.3606 27.6313C23.0826 27.8419 22.7537 27.9672 22.4111 27.9929C22.0685 28.0187 21.7257 27.944 21.4217 27.7772L15.9998 24.8041L10.578 27.7772C10.3136 27.9231 10.0191 27.9996 9.71996 28V28ZM7.04263 14.0271L10.8276 17.8777C11.0416 18.0949 11.2016 18.3632 11.2938 18.6594C11.386 18.9556 11.4077 19.2708 11.3568 19.5777L10.464 25.0131L15.1442 22.4456C15.4084 22.3019 15.7019 22.2269 15.9998 22.2269C16.2978 22.2269 16.5913 22.3019 16.8555 22.4456L21.5357 25.0119L20.6417 19.5777C20.5912 19.2706 20.6133 18.9553 20.7059 18.6591C20.7985 18.3629 20.959 18.0947 21.1733 17.8777L24.9571 14.0283L19.726 13.2359C19.4309 13.1911 19.1505 13.0722 18.9091 12.8895C18.6677 12.7068 18.4724 12.4657 18.34 12.1869L15.9998 7.23714L13.6609 12.1819C13.5287 12.4611 13.3335 12.7026 13.0921 12.8858C12.8507 13.0689 12.5702 13.1882 12.2749 13.2334L7.04263 14.0271Z" fill="#111928"/>
</svg>
