<svg width="20" height="20" viewBox="0 0 20 20" fill="none" xmlns="http://www.w3.org/2000/svg">
<path d="M17.4424 8.14178C17.3769 7.92832 17.2551 7.73845 17.0908 7.59397C16.9266 7.44948 16.7266 7.35625 16.5139 7.32497L12.7257 6.75069L11.0315 3.16967C10.9365 2.96868 10.7895 2.79943 10.6071 2.68108C10.4248 2.56273 10.2143 2.5 9.99947 2.5C9.78468 2.5 9.57418 2.56273 9.39179 2.68108C9.20941 2.79943 9.06242 2.96868 8.96748 3.16967L7.27325 6.75069L3.48505 7.32497C3.27264 7.35729 3.07312 7.45093 2.90903 7.59529C2.74494 7.73966 2.62281 7.92901 2.55643 8.14197C2.49005 8.35492 2.48206 8.583 2.53337 8.80044C2.58468 9.01787 2.69325 9.21602 2.8468 9.37249L5.58877 12.1602L4.94153 16.0956C4.90463 16.3165 4.92786 16.5437 5.00858 16.7515C5.08931 16.9593 5.22428 17.1394 5.39818 17.2711C5.57207 17.4029 5.77791 17.4812 5.9923 17.497C6.2067 17.5128 6.42105 17.4656 6.61101 17.3607L9.99947 15.5025L13.3879 17.3607C13.578 17.4647 13.7921 17.5111 14.0061 17.4949C14.2201 17.4786 14.4255 17.4003 14.5991 17.2687C14.7727 17.1372 14.9076 16.9576 14.9886 16.7503C15.0696 16.543 15.0934 16.3163 15.0574 16.0956L14.4102 12.1602L17.1521 9.37171C17.3065 9.2159 17.4155 9.01786 17.4669 8.80031C17.5182 8.58276 17.5097 8.35452 17.4424 8.14178Z" fill="#FFCA0A"/>
</svg>
