<svg width="33" height="32" viewBox="0 0 33 32" fill="none" xmlns="http://www.w3.org/2000/svg">
<path d="M16.6667 16.7018C18.8758 16.7018 20.6667 14.8167 20.6667 12.4913C20.6667 10.1659 18.8758 8.28079 16.6667 8.28079C14.4576 8.28079 12.6667 10.1659 12.6667 12.4913C12.6667 14.8167 14.4576 16.7018 16.6667 16.7018Z" fill="#EFBB00"/>
<path d="M15.3334 20.9123H18C19.4145 20.9123 20.7711 21.5038 21.7713 22.5566C22.7715 23.6095 23.3334 25.0374 23.3334 26.5263V29.3334H10V26.5263C10 25.0374 10.5619 23.6095 11.5621 22.5566C12.5623 21.5038 13.9189 20.9123 15.3334 20.9123Z" fill="#EFBB00"/>
<path d="M20.6667 12.4913C20.6657 11.499 20.3312 10.5391 19.7223 9.78157C19.1134 9.02403 18.2695 8.51774 17.34 8.35236" fill="#EFBB00"/>
<path d="M22.6667 2.66677C21.7087 2.66986 20.7694 2.94537 19.9479 3.46418C19.1264 3.983 18.4534 4.72583 18 5.61413C19.5049 5.93964 20.8572 6.80144 21.8287 8.05422C22.8003 9.307 23.3317 10.8741 23.3334 12.4913C23.3312 12.9439 23.2865 13.3953 23.2 13.8387C24.5634 13.7021 25.8241 13.0173 26.7197 11.9267C27.6154 10.8362 28.0769 9.42403 28.0082 7.98429C27.9394 6.54454 27.3458 5.18819 26.3508 4.19767C25.3558 3.20714 24.0362 2.65878 22.6667 2.66677Z" fill="#EFBB00"/>
<path d="M13.1547 18.4309C12.0167 17.6807 11.1174 16.5899 10.572 15.2983H10C8.23258 15.3005 6.53812 16.0406 5.28833 17.3562C4.03855 18.6717 3.33549 20.4554 3.33337 22.3158V25.1228C3.33337 25.4951 3.47385 25.8521 3.7239 26.1153C3.97395 26.3785 4.31309 26.5263 4.66671 26.5263H7.33337C7.33642 24.6945 7.90622 22.9134 8.95655 21.4528C10.0069 19.9922 11.4806 18.9314 13.1547 18.4309Z" fill="#EFBB00"/>
<path d="M23.3334 15.2983H22.7614C22.216 16.5899 21.3167 17.6807 20.1787 18.4309C21.8528 18.9314 23.3265 19.9922 24.3769 21.4528C25.4272 22.9134 25.997 24.6945 26 26.5263H28.6667C29.0203 26.5263 29.3595 26.3785 29.6095 26.1153C29.8596 25.8521 30 25.4951 30 25.1228V22.3158C29.9979 20.4554 29.2949 18.6717 28.0451 17.3562C26.7953 16.0406 25.1008 15.3005 23.3334 15.2983Z" fill="#EFBB00"/>
<path d="M10 12.4913C10.0017 10.8741 10.5332 9.307 11.5047 8.05422C12.4762 6.80145 13.8285 5.93964 15.3334 5.61414C14.8981 4.76332 14.2609 4.04564 13.4839 3.53094C12.7069 3.01625 11.8165 2.72208 10.8995 2.67707C9.98245 2.63206 9.06995 2.83774 8.25083 3.27409C7.4317 3.71044 6.73385 4.3626 6.22522 5.16708C5.71658 5.97157 5.41448 6.90097 5.34832 7.86482C5.28216 8.82866 5.4542 9.79412 5.84769 10.6672C6.24118 11.5403 6.84272 12.2913 7.59375 12.8471C8.34477 13.4028 9.2197 13.7445 10.1334 13.8387C10.0469 13.3953 10.0023 12.944 10 12.4913Z" fill="#EFBB00"/>
</svg>
