<svg width="24" height="24" viewBox="0 0 24 24" fill="none" xmlns="http://www.w3.org/2000/svg">
<path d="M16.5 2.00007C15.7815 2.00227 15.077 2.19857 14.4609 2.56823C13.8448 2.93788 13.34 3.46715 13 4.10007C13.6592 4.23616 14.2839 4.50495 14.836 4.89006C15.0183 4.61588 15.2656 4.39096 15.5557 4.23528C15.8459 4.07959 16.17 3.99795 16.4992 3.9976C16.8285 3.99726 17.1528 4.07822 17.4433 4.2333C17.7337 4.38838 17.9814 4.61278 18.1644 4.88657C18.3473 5.16037 18.4598 5.4751 18.4918 5.80281C18.5239 6.13053 18.4746 6.46109 18.3482 6.76515C18.2218 7.06922 18.0223 7.33738 17.7674 7.54582C17.5125 7.75427 17.2101 7.89656 16.887 7.96005C17.0314 8.61838 17.0365 9.29962 16.902 9.96004C17.9247 9.86276 18.8704 9.37467 19.5422 8.59745C20.214 7.82022 20.56 6.81379 20.5082 5.78779C20.4564 4.76179 20.0107 3.79534 19.264 3.08975C18.5174 2.38415 17.5273 1.99383 16.5 2.00007Z" fill="#EFBB00"/>
<path d="M12 13C11.2089 13 10.4355 12.7654 9.77772 12.3259C9.11992 11.8864 8.60723 11.2617 8.30448 10.5308C8.00173 9.79988 7.92252 8.99561 8.07686 8.21969C8.2312 7.44377 8.61216 6.73104 9.17157 6.17163C9.73098 5.61222 10.4437 5.23126 11.2196 5.07692C11.9956 4.92258 12.7998 5.00179 13.5307 5.30454C14.2616 5.60729 14.8864 6.11998 15.3259 6.77778C15.7654 7.43557 16 8.20893 16 9.00005C16 10.0609 15.5786 11.0783 14.8284 11.8285C14.0783 12.5786 13.0609 13 12 13ZM12 7.00006C11.6044 7.00006 11.2178 7.11735 10.8889 7.33712C10.56 7.55688 10.3036 7.86923 10.1522 8.23468C10.0009 8.60014 9.96126 9.00227 10.0384 9.39023C10.1156 9.77819 10.3061 10.1346 10.5858 10.4143C10.8655 10.694 11.2219 10.8844 11.6098 10.9616C11.9978 11.0388 12.3999 10.9992 12.7654 10.8478C13.1308 10.6964 13.4432 10.4401 13.6629 10.1112C13.8827 9.78229 14 9.39561 14 9.00005C14 8.46962 13.7893 7.96091 13.4142 7.58584C13.0391 7.21077 12.5304 7.00006 12 7.00006Z" fill="#EFBB00"/>
<path d="M17 22H7C6.73478 22 6.48043 21.8946 6.29289 21.7071C6.10536 21.5196 6 21.2652 6 21V19C6.00159 17.6744 6.52888 16.4036 7.46622 15.4662C8.40356 14.5289 9.67441 14.0016 11 14H13C14.3256 14.0016 15.5964 14.5289 16.5338 15.4662C17.4711 16.4036 17.9984 17.6744 18 19V21C18 21.2652 17.8946 21.5196 17.7071 21.7071C17.5196 21.8946 17.2652 22 17 22ZM8 20H16V19C16 18.2044 15.6839 17.4413 15.1213 16.8787C14.5587 16.3161 13.7956 16 13 16H11C10.2044 16 9.44129 16.3161 8.87868 16.8787C8.31607 17.4413 8 18.2044 8 19V20Z" fill="#EFBB00"/>
<path d="M7 9.00005C7.00102 8.65076 7.03856 8.30253 7.112 7.96105C6.7889 7.89756 6.48647 7.75527 6.23157 7.54682C5.97667 7.33838 5.77718 7.07022 5.65081 6.76615C5.52444 6.46209 5.4751 6.13153 5.50716 5.80381C5.53923 5.4761 5.65172 5.16137 5.83464 4.88757C6.01756 4.61378 6.26525 4.38938 6.55573 4.2343C6.8462 4.07922 7.17047 3.99826 7.49975 3.9986C7.82903 3.99895 8.15314 4.08059 8.44328 4.23628C8.73343 4.39196 8.98066 4.61688 9.163 4.89106C9.71531 4.50547 10.3403 4.23634 11 4.10007C10.6737 3.4937 10.1959 2.98216 9.61315 2.61526C9.03043 2.24835 8.36263 2.03859 7.67478 2.00638C6.98692 1.97418 6.30245 2.12063 5.688 2.43149C5.07354 2.74234 4.55005 3.207 4.16849 3.78022C3.78692 4.35345 3.56028 5.01571 3.51065 5.70252C3.46101 6.38934 3.59005 7.07731 3.88522 7.69944C4.18039 8.32158 4.63163 8.85669 5.19499 9.25267C5.75836 9.64864 6.41466 9.892 7.1 9.95904C7.03569 9.64337 7.0022 9.3222 7 9.00005Z" fill="#EFBB00"/>
<path d="M17 11H16.571C16.162 11.9203 15.4875 12.6975 14.634 13.232C14.676 13.244 14.714 13.265 14.757 13.278C15.1462 13.0962 15.5704 13.0013 16 13H17C17.7956 13 18.5587 13.3161 19.1213 13.8787C19.6839 14.4413 20 15.2044 20 16V17H18.653C18.882 17.642 18.9994 18.3184 19 19H21C21.2652 19 21.5196 18.8947 21.7071 18.7071C21.8946 18.5196 22 18.2652 22 18V16C21.9984 14.6744 21.4711 13.4036 20.5338 12.4663C19.5964 11.5289 18.3256 11.0016 17 11Z" fill="#EFBB00"/>
<path d="M5.347 17H4V16C4 15.2044 4.31607 14.4413 4.87868 13.8787C5.44129 13.3161 6.20435 13 7 13H8C8.42993 13.0013 8.85442 13.0962 9.244 13.278C9.286 13.265 9.324 13.244 9.366 13.232C8.51249 12.6975 7.83802 11.9203 7.429 11H7C5.67441 11.0016 4.40356 11.5289 3.46622 12.4663C2.52888 13.4036 2.00159 14.6744 2 16V18C2 18.2652 2.10536 18.5196 2.29289 18.7071C2.48043 18.8947 2.73478 19 3 19H5C5.00065 18.3184 5.11801 17.642 5.347 17Z" fill="#EFBB00"/>
</svg>
