<svg width="24" height="24" viewBox="0 0 24 24" fill="none" xmlns="http://www.w3.org/2000/svg">
<path d="M8.5 11.4737C8.77532 11.4714 9.04983 11.4422 9.32 11.3863C9.42298 10.9 9.65537 10.4545 9.99 10.1021L10.7 9.3579C10.9317 9.1128 11.2072 8.9185 11.5107 8.78624C11.8142 8.65398 12.1395 8.58638 12.468 8.58737C12.525 8.58737 12.581 8.5979 12.637 8.60105C13.0178 7.66465 13.1018 6.62397 12.8763 5.6334C12.6509 4.64282 12.1282 3.75511 11.3856 3.10197C10.6431 2.44883 9.72027 2.06505 8.75414 2.00755C7.78801 1.95006 6.83001 2.22192 6.02225 2.78281C5.2145 3.34369 4.60002 4.16372 4.26998 5.12125C3.93993 6.07877 3.9119 7.12278 4.19005 8.09839C4.46819 9.07401 5.0377 9.92926 5.81407 10.5373C6.59044 11.1453 7.53233 11.4737 8.5 11.4737ZM8.5 4.10527C8.99445 4.10527 9.4778 4.25961 9.88893 4.54877C10.3 4.83793 10.6205 5.24892 10.8097 5.72978C10.9989 6.21064 11.0484 6.73976 10.952 7.25024C10.8555 7.76072 10.6174 8.22962 10.2678 8.59765C9.91814 8.96568 9.47268 9.21632 8.98773 9.31786C8.50277 9.4194 8.00011 9.36728 7.54329 9.16811C7.08648 8.96893 6.69603 8.63163 6.42133 8.19887C6.14662 7.76611 6 7.25732 6 6.73684C6 6.03891 6.26339 5.36955 6.73223 4.87604C7.20107 4.38252 7.83696 4.10527 8.5 4.10527Z" fill="#EFBB00"/>
<path d="M9.313 19.8947H4V17.7895C4 16.9519 4.31607 16.1487 4.87868 15.5565C5.44129 14.9643 6.20435 14.6316 7 14.6316H8.072C8.14574 14.2416 8.30246 13.8743 8.53038 13.5573C8.75831 13.2403 9.05153 12.9817 9.388 12.8011C9.36715 12.7104 9.35079 12.6187 9.339 12.5263H7C5.67441 12.528 4.40356 13.083 3.46622 14.0697C2.52888 15.0564 2.00159 16.3941 2 17.7895V20.9474C2 21.2265 2.10536 21.4943 2.29289 21.6917C2.48043 21.8891 2.73478 22 3 22H10.687L9.987 21.2632C9.63656 20.8889 9.40164 20.4119 9.313 19.8947Z" fill="#EFBB00"/>
<path d="M21.5 14.6316H20.38C20.2672 14.1138 20.0714 13.6201 19.801 13.1716L20.601 12.3347C20.6947 12.236 20.7474 12.1022 20.7474 11.9626C20.7474 11.8231 20.6947 11.6892 20.601 11.5905L19.894 10.8463C19.8002 10.7476 19.6731 10.6922 19.5405 10.6922C19.4079 10.6922 19.2808 10.7476 19.187 10.8463L18.392 11.6884C17.9647 11.4014 17.4939 11.1935 17 11.0737V9.89474C17 9.75515 16.9473 9.62128 16.8536 9.52258C16.7598 9.42387 16.6326 9.36842 16.5 9.36842H15.5C15.3674 9.36842 15.2402 9.42387 15.1464 9.52258C15.0527 9.62128 15 9.75515 15 9.89474V11.0737C14.5081 11.1925 14.0391 11.3986 13.613 11.6832L12.818 10.8463C12.7242 10.7476 12.5971 10.6922 12.4645 10.6922C12.3319 10.6922 12.2048 10.7476 12.111 10.8463L11.404 11.5905C11.3103 11.6892 11.2576 11.8231 11.2576 11.9626C11.2576 12.1022 11.3103 12.236 11.404 12.3347L12.204 13.1768C11.9324 13.6234 11.7349 14.1153 11.62 14.6316H10.5C10.3674 14.6316 10.2402 14.687 10.1464 14.7857C10.0527 14.8844 10 15.0183 10 15.1579V16.2105C10 16.3501 10.0527 16.484 10.1464 16.5827C10.2402 16.6814 10.3674 16.7368 10.5 16.7368H11.62C11.7328 17.2546 11.9286 17.7483 12.199 18.1968L11.404 19.0337C11.3103 19.1324 11.2576 19.2662 11.2576 19.4058C11.2576 19.5453 11.3103 19.6792 11.404 19.7779L12.111 20.5221C12.2048 20.6208 12.3319 20.6762 12.4645 20.6762C12.5971 20.6762 12.7242 20.6208 12.818 20.5221L13.618 19.68C14.0422 19.9659 14.5096 20.1738 15 20.2947V21.4737C15 21.6133 15.0527 21.7471 15.1464 21.8458C15.2402 21.9445 15.3674 22 15.5 22H16.5C16.6326 22 16.7598 21.9445 16.8536 21.8458C16.9473 21.7471 17 21.6133 17 21.4737V20.2947C17.4919 20.176 17.9609 19.9699 18.387 19.6853L19.182 20.5274C19.2758 20.626 19.4029 20.6815 19.5355 20.6815C19.6681 20.6815 19.7952 20.626 19.889 20.5274L20.596 19.7832C20.6897 19.6845 20.7424 19.5506 20.7424 19.4111C20.7424 19.2715 20.6897 19.1376 20.596 19.0389L19.796 18.2021C20.0686 17.7523 20.2662 17.2568 20.38 16.7368H21.5C21.6326 16.7368 21.7598 16.6814 21.8536 16.5827C21.9473 16.484 22 16.3501 22 16.2105V15.1579C22 15.0183 21.9473 14.8844 21.8536 14.7857C21.7598 14.687 21.6326 14.6316 21.5 14.6316ZM16 18.3158C15.5055 18.3158 15.0222 18.1615 14.6111 17.8723C14.2 17.5831 13.8795 17.1721 13.6903 16.6913C13.5011 16.2104 13.4516 15.6813 13.548 15.1708C13.6445 14.6603 13.8826 14.1914 14.2322 13.8234C14.5819 13.4554 15.0273 13.2047 15.5123 13.1032C15.9972 13.0017 16.4999 13.0538 16.9567 13.253C17.4135 13.4521 17.804 13.7894 18.0787 14.2222C18.3534 14.6549 18.5 15.1637 18.5 15.6842C18.5 16.3822 18.2366 17.0515 17.7678 17.545C17.2989 18.0385 16.663 18.3158 16 18.3158Z" fill="#EFBB00"/>
<path d="M16 16.7368C16.5523 16.7368 17 16.2656 17 15.6842C17 15.1029 16.5523 14.6316 16 14.6316C15.4477 14.6316 15 15.1029 15 15.6842C15 16.2656 15.4477 16.7368 16 16.7368Z" fill="#EFBB00"/>
</svg>
