<svg width="32" height="32" viewBox="0 0 32 32" fill="none" xmlns="http://www.w3.org/2000/svg">
<path d="M13.32 28.358C12.8818 27.8993 12.5747 27.3218 12.4334 26.6907C12.2921 26.0596 12.3221 25.3997 12.52 24.7854C11.9643 24.4977 11.4965 24.0537 11.1691 23.5033C10.8417 22.9529 10.6677 22.3179 10.6667 21.6699V20.2765C10.6667 19.628 10.8399 18.9924 11.1669 18.4412C11.4938 17.8901 11.9615 17.4452 12.5173 17.1568C12.4895 17.0368 12.4677 16.9154 12.452 16.7931H9.33332C7.56586 16.7953 5.8714 17.53 4.62162 18.8361C3.37183 20.1421 2.66877 21.9129 2.66666 23.7599V27.94C2.66666 28.3095 2.80713 28.6639 3.05718 28.9252C3.30723 29.1866 3.64637 29.3334 3.99999 29.3334H14.2493L13.32 28.358Z" fill="#EFBB00"/>
<path d="M28.6667 19.5798H27.1733C27.0229 18.8945 26.7618 18.2409 26.4013 17.6472L27.468 16.5395C27.593 16.4089 27.6632 16.2317 27.6632 16.047C27.6632 15.8622 27.593 15.6851 27.468 15.5544L26.5253 14.5693C26.4003 14.4387 26.2308 14.3653 26.054 14.3653C25.8772 14.3653 25.7077 14.4387 25.5827 14.5693L24.5227 15.684C23.9529 15.3041 23.3252 15.0289 22.6667 14.8703V13.3097C22.6667 13.1249 22.5964 12.9477 22.4714 12.8171C22.3464 12.6864 22.1768 12.613 22 12.613H20.6667C20.4898 12.613 20.3203 12.6864 20.1953 12.8171C20.0702 12.9477 20 13.1249 20 13.3097V14.8703C19.3442 15.0275 18.7188 15.3003 18.1507 15.677L17.0907 14.5693C16.9656 14.4387 16.7961 14.3653 16.6193 14.3653C16.4425 14.3653 16.273 14.4387 16.148 14.5693L15.2053 15.5544C15.0803 15.6851 15.0101 15.8622 15.0101 16.047C15.0101 16.2317 15.0803 16.4089 15.2053 16.5395L16.272 17.6542C15.9099 18.2453 15.6465 18.8965 15.4933 19.5798H14C13.8232 19.5798 13.6536 19.6532 13.5286 19.7839C13.4036 19.9145 13.3333 20.0917 13.3333 20.2765V21.6699C13.3333 21.8546 13.4036 22.0318 13.5286 22.1625C13.6536 22.2932 13.8232 22.3666 14 22.3666H15.4933C15.6438 23.0519 15.9048 23.7054 16.2653 24.2991L15.2053 25.4069C15.0803 25.5375 15.0101 25.7147 15.0101 25.8994C15.0101 26.0842 15.0803 26.2613 15.2053 26.392L16.148 27.3771C16.273 27.5077 16.4425 27.5811 16.6193 27.5811C16.7961 27.5811 16.9656 27.5077 17.0907 27.3771L18.1573 26.2624C18.723 26.6408 19.3461 26.916 20 27.0761V28.6367C20 28.8214 20.0702 28.9986 20.1953 29.1293C20.3203 29.26 20.4898 29.3334 20.6667 29.3334H22C22.1768 29.3334 22.3464 29.26 22.4714 29.1293C22.5964 28.9986 22.6667 28.8214 22.6667 28.6367V27.0761C23.3225 26.9189 23.9479 26.6461 24.516 26.2694L25.576 27.384C25.701 27.5147 25.8705 27.588 26.0473 27.588C26.2241 27.588 26.3936 27.5147 26.5187 27.384L27.4613 26.3989C27.5863 26.2683 27.6565 26.0911 27.6565 25.9064C27.6565 25.7217 27.5863 25.5445 27.4613 25.4138L26.3947 24.3061C26.7582 23.7107 27.0215 23.0548 27.1733 22.3666H28.6667C28.8435 22.3666 29.013 22.2932 29.1381 22.1625C29.2631 22.0318 29.3333 21.8546 29.3333 21.6699V20.2765C29.3333 20.0917 29.2631 19.9145 29.1381 19.7839C29.013 19.6532 28.8435 19.5798 28.6667 19.5798ZM21.3333 24.4566C20.6741 24.4566 20.0296 24.2523 19.4814 23.8695C18.9333 23.4868 18.506 22.9427 18.2537 22.3062C18.0014 21.6697 17.9354 20.9693 18.064 20.2936C18.1927 19.6179 18.5101 18.9972 18.9763 18.5101C19.4425 18.0229 20.0364 17.6911 20.683 17.5567C21.3296 17.4223 21.9998 17.4913 22.6089 17.7549C23.218 18.0186 23.7386 18.4651 24.1049 19.0379C24.4712 19.6108 24.6667 20.2842 24.6667 20.9732C24.6667 21.897 24.3155 22.7831 23.6903 23.4363C23.0652 24.0896 22.2174 24.4566 21.3333 24.4566Z" fill="#EFBB00"/>
<path d="M21.3333 22.3666C22.0697 22.3666 22.6667 21.7427 22.6667 20.9732C22.6667 20.2037 22.0697 19.5798 21.3333 19.5798C20.5969 19.5798 20 20.2037 20 20.9732C20 21.7427 20.5969 22.3666 21.3333 22.3666Z" fill="#EFBB00"/>
<path d="M12.4267 15.2841C12.564 14.6403 12.8738 14.0507 13.32 13.5842L14.2667 12.5991C14.5755 12.2747 14.9429 12.0175 15.3476 11.8424C15.7522 11.6673 16.186 11.5778 16.624 11.5792C16.7 11.5792 16.7747 11.5931 16.8493 11.5973C17.3981 10.2942 17.513 8.83659 17.1758 7.45726C16.8387 6.07792 16.0688 4.85649 14.9893 3.98813C13.9097 3.11977 12.5828 2.65459 11.2206 2.66693C9.85835 2.67926 8.53936 3.1684 7.4744 4.05618C6.40943 4.94396 5.65994 6.17915 5.34568 7.56438C5.03143 8.94962 5.17054 10.405 5.7408 11.6979C6.31105 12.9908 7.27954 14.0466 8.49151 14.6967C9.70348 15.3468 11.089 15.5536 12.4267 15.2841Z" fill="#EFBB00"/>
</svg>
