<svg width="25" height="24" viewBox="0 0 25 24" fill="none" xmlns="http://www.w3.org/2000/svg">
<path d="M12.5 14C13.2911 14 14.0645 13.7654 14.7223 13.3259C15.3801 12.8863 15.8928 12.2616 16.1955 11.5307C16.4983 10.7998 16.5775 9.99556 16.4231 9.21964C16.2688 8.44371 15.8878 7.73098 15.3284 7.17157C14.769 6.61216 14.0563 6.2312 13.2804 6.07686C12.5044 5.92252 11.7002 6.00173 10.9693 6.30448C10.2384 6.60723 9.61365 7.11992 9.17412 7.77772C8.73459 8.43551 8.5 9.20887 8.5 10C8.5 11.0609 8.92143 12.0783 9.67157 12.8284C10.4217 13.5786 11.4391 14 12.5 14ZM12.5 8C12.8956 8 13.2822 8.1173 13.6111 8.33706C13.94 8.55682 14.1964 8.86918 14.3478 9.23463C14.4991 9.60008 14.5387 10.0022 14.4616 10.3902C14.3844 10.7781 14.1939 11.1345 13.9142 11.4142C13.6345 11.6939 13.2781 11.8844 12.8902 11.9616C12.5022 12.0387 12.1001 11.9991 11.7346 11.8478C11.3692 11.6964 11.0568 11.44 10.8371 11.1111C10.6173 10.7822 10.5 10.3956 10.5 10C10.5 9.46956 10.7107 8.96086 11.0858 8.58578C11.4609 8.21071 11.9696 8 12.5 8Z" fill="#6B7280"/>
<path d="M22.5 12C22.5014 10.2703 22.0541 8.56983 21.2019 7.06468C20.3496 5.55952 19.1215 4.30116 17.6376 3.41252C16.1536 2.52388 14.4645 2.03535 12.7353 1.99465C11.0061 1.95395 9.2959 2.36247 7.77177 3.18031C6.24764 3.99815 4.96171 5.19733 4.03958 6.66072C3.11746 8.12411 2.59067 9.80166 2.5107 11.5295C2.43072 13.2573 2.80028 14.9764 3.58328 16.5187C4.36628 18.061 5.53594 19.3739 6.978 20.329C6.986 20.335 6.991 20.342 6.999 20.348C7.037 20.373 7.079 20.39 7.118 20.415C7.44053 20.6206 7.77439 20.8079 8.118 20.976C8.209 21.02 8.299 21.066 8.392 21.107C8.78131 21.2866 9.18221 21.4399 9.592 21.566C9.641 21.582 9.692 21.591 9.743 21.605C10.1115 21.7097 10.4858 21.7929 10.864 21.854C10.974 21.873 11.083 21.891 11.193 21.905C11.6261 21.9652 12.0627 21.9969 12.5 22C12.9349 21.9966 13.3692 21.9649 13.8 21.905C13.91 21.891 14.019 21.873 14.129 21.854C14.5072 21.7929 14.8815 21.7097 15.25 21.605C15.3 21.591 15.35 21.582 15.401 21.566C15.8108 21.4399 16.2117 21.2866 16.601 21.107C16.694 21.066 16.784 21.02 16.875 20.976C17.2186 20.8079 17.5525 20.6206 17.875 20.415C17.914 20.39 17.956 20.373 17.994 20.348C18.002 20.342 18.007 20.335 18.015 20.329C19.3919 19.4187 20.5221 18.1817 21.3046 16.7284C22.0872 15.2751 22.4979 13.6506 22.5 12ZM4.5 12C4.49741 10.6726 4.82515 9.36545 5.45369 8.1963C6.08222 7.02716 6.99179 6.03279 8.10043 5.3028C9.20906 4.57281 10.4819 4.13015 11.8043 4.01472C13.1266 3.89928 14.4569 4.1147 15.6753 4.64155C16.8936 5.16841 17.9617 5.99014 18.7833 7.03269C19.6049 8.07524 20.1542 9.30585 20.3817 10.6136C20.6091 11.9214 20.5076 13.2652 20.0862 14.5239C19.6649 15.7826 18.9369 16.9167 17.968 17.824C17.5637 16.9811 16.9302 16.2692 16.14 15.7697C15.3497 15.2702 14.4348 15.0035 13.5 15H11.5C10.5652 15.0035 9.65025 15.2702 8.86004 15.7697C8.06982 16.2692 7.43628 16.9811 7.032 17.824C6.23352 17.0784 5.59676 16.1768 5.1612 15.1749C4.72564 14.1731 4.50059 13.0924 4.5 12ZM15.345 19.468C13.5096 20.15 11.4904 20.15 9.655 19.468C9.62 19.454 9.583 19.443 9.548 19.429C9.25112 19.3135 8.96158 19.1799 8.681 19.029C8.88086 18.4392 9.25999 17.9266 9.76541 17.5628C10.2708 17.1991 10.8773 17.0023 11.5 17H13.5C14.1225 17.0021 14.7287 17.1986 15.2341 17.562C15.7395 17.9254 16.1188 18.4376 16.319 19.027C16.0384 19.1779 15.7489 19.3115 15.452 19.427C15.417 19.443 15.38 19.454 15.345 19.468Z" fill="#6B7280"/>
</svg>
