<svg width="81" height="80" viewBox="0 0 81 80" fill="none" xmlns="http://www.w3.org/2000/svg">
<rect x="0.5" width="80" height="80" rx="40" fill="#D1D5DB"/>
<path d="M53.364 31.2364C52.5557 30.8121 51.544 31.0923 51.099 31.8555C50.6523 32.6202 50.9457 33.5845 51.7507 34.0073C53.344 34.8448 54.334 36.4392 54.334 38.1667V46.0833H41.0007V38.1667C41.0007 36.3775 40.349 34.7435 39.2907 33.4167H46.0007V36.5833C46.0007 37.4589 46.7473 38.1667 47.6673 38.1667C48.5873 38.1667 49.334 37.4589 49.334 36.5833V28.6667H51.0007C51.9207 28.6667 52.6673 27.9589 52.6673 27.0833C52.6673 26.2078 51.9207 25.5 51.0007 25.5H47.6673C46.7473 25.5 46.0007 26.2078 46.0007 27.0833V30.25H32.6673C28.0723 30.25 24.334 33.8014 24.334 38.1667V47.6667C24.334 48.5422 25.0807 49.25 26.0007 49.25H37.6673V55.5833C37.6673 56.4589 38.414 57.1667 39.334 57.1667C40.254 57.1667 41.0007 56.4589 41.0007 55.5833V49.25H44.334V55.5833C44.334 56.4589 45.0807 57.1667 46.0007 57.1667C46.9207 57.1667 47.6673 56.4589 47.6673 55.5833V49.25H56.0007C56.9207 49.25 57.6673 48.5422 57.6673 47.6667V38.1667C57.6673 35.2882 56.019 32.6313 53.364 31.2364ZM37.6673 46.0833H27.6673V38.1667C27.6673 35.5478 29.9107 33.4167 32.6673 33.4167C35.424 33.4167 37.6673 35.5478 37.6673 38.1667V46.0833Z" fill="#9CA3AF"/>
<path d="M34.334 41.3333H31.0007C30.0807 41.3333 29.334 42.0411 29.334 42.9167C29.334 43.7922 30.0807 44.5 31.0007 44.5H34.334C35.254 44.5 36.0007 43.7922 36.0007 42.9167C36.0007 42.0411 35.254 41.3333 34.334 41.3333Z" fill="#9CA3AF"/>
</svg>
