<svg width="24" height="24" viewBox="0 0 24 24" fill="none" xmlns="http://www.w3.org/2000/svg">
<path d="M19.071 4.929C22.976 8.834 22.976 15.166 19.071 19.071C15.166 22.976 8.834 22.976 4.929 19.071C1.024 15.166 1.024 8.834 4.929 4.929C8.834 1.024 15.166 1.024 19.071 4.929" stroke="#323232" stroke-width="1.5" stroke-linecap="round" stroke-linejoin="round"/>
<path d="M5.5 12H18.5" stroke="#323232" stroke-width="1.5" stroke-linecap="round" stroke-linejoin="round"/>
<path fill-rule="evenodd" clip-rule="evenodd" d="M12 18.5C15.5899 18.5 18.5 15.5899 18.5 12C18.5 8.41015 15.5899 5.5 12 5.5C8.41015 5.5 5.5 8.41015 5.5 12C5.5 15.5899 8.41015 18.5 12 18.5Z" stroke="#323232" stroke-width="1.5" stroke-linecap="round" stroke-linejoin="round"/>
<path fill-rule="evenodd" clip-rule="evenodd" d="M12 18.5C13.5878 18.5 14.875 15.5899 14.875 12C14.875 8.41015 13.5878 5.5 12 5.5C10.4122 5.5 9.125 8.41015 9.125 12C9.125 15.5899 10.4122 18.5 12 18.5Z" stroke="#323232" stroke-width="1.5" stroke-linecap="round" stroke-linejoin="round"/>
</svg>
